<?xml version="1.0" encoding="UTF-8"?>
<svg xmlns="http://www.w3.org/2000/svg" xmlns:xlink="http://www.w3.org/1999/xlink" width="75pt" height="74.999997pt" viewBox="0 0 75 74.999997" version="1.2">
<defs>
<filter id="alpha" filterUnits="objectBoundingBox" x="0%" y="0%" width="100%" height="100%">
  <feColorMatrix type="matrix" in="SourceGraphic" values="0 0 0 0 1 0 0 0 0 1 0 0 0 0 1 0 0 0 1 0"/>
</filter>
<mask id="mask0">
  <g filter="url(#alpha)">
<rect x="0" y="0" width="75" height="74.999997" style="fill:rgb(0%,0%,0%);fill-opacity:0.0667;stroke:none;"/>
  </g>
</mask>
<clipPath id="clip2">
  <path d="M 3 0.253906 L 13 0.253906 L 13 9 L 3 9 Z M 3 0.253906 "/>
</clipPath>
<clipPath id="clip3">
  <path d="M 62 60 L 69.992188 60 L 69.992188 68.503906 L 62 68.503906 Z M 62 60 "/>
</clipPath>
<clipPath id="clip4">
  <path d="M 62 29 L 69.992188 29 L 69.992188 37 L 62 37 Z M 62 29 "/>
</clipPath>
<clipPath id="clip5">
  <path d="M 62 13 L 69.992188 13 L 69.992188 23 L 62 23 Z M 62 13 "/>
</clipPath>
<clipPath id="clip6">
  <path d="M 19 62 L 26 62 L 26 68.503906 L 19 68.503906 Z M 19 62 "/>
</clipPath>
<clipPath id="clip1">
  <rect x="0" y="0" width="71" height="69"/>
</clipPath>
<g id="surface5" clip-path="url(#clip1)">
<path style=" stroke:none;fill-rule:nonzero;fill:rgb(0%,0%,0%);fill-opacity:1;" d="M 41.101562 66.386719 L 34.984375 67.351562 C 34.859375 67.371094 34.742188 67.289062 34.722656 67.164062 L 34.085938 63.164062 C 34.066406 63.039062 34.152344 62.921875 34.277344 62.902344 L 35.820312 62.660156 L 35.257812 61.640625 L 36.75 62.511719 L 40.398438 61.9375 C 40.519531 61.917969 40.636719 62.003906 40.65625 62.125 L 41.292969 66.128906 C 41.3125 66.25 41.226562 66.367188 41.101562 66.386719 "/>
<path style=" stroke:none;fill-rule:nonzero;fill:rgb(100%,100%,100%);fill-opacity:1;" d="M 36.902344 64.765625 C 36.886719 64.644531 36.769531 64.558594 36.644531 64.578125 L 36.605469 64.582031 C 36.484375 64.605469 36.398438 64.71875 36.417969 64.84375 L 36.421875 64.878906 C 36.441406 65.003906 36.558594 65.089844 36.683594 65.070312 L 36.722656 65.0625 C 36.84375 65.042969 36.929688 64.925781 36.910156 64.804688 L 36.902344 64.765625 "/>
<path style=" stroke:none;fill-rule:nonzero;fill:rgb(100%,100%,100%);fill-opacity:1;" d="M 37.933594 64.605469 C 37.914062 64.480469 37.796875 64.394531 37.671875 64.417969 L 37.636719 64.421875 C 37.511719 64.441406 37.425781 64.558594 37.445312 64.679688 L 37.453125 64.71875 C 37.472656 64.84375 37.589844 64.925781 37.710938 64.90625 L 37.75 64.898438 C 37.875 64.882812 37.957031 64.765625 37.9375 64.640625 L 37.933594 64.605469 "/>
<path style=" stroke:none;fill-rule:nonzero;fill:rgb(100%,100%,100%);fill-opacity:1;" d="M 38.960938 64.441406 C 38.941406 64.320312 38.824219 64.234375 38.703125 64.253906 L 38.664062 64.257812 C 38.539062 64.277344 38.453125 64.394531 38.472656 64.519531 L 38.480469 64.554688 C 38.5 64.679688 38.617188 64.765625 38.742188 64.746094 L 38.777344 64.738281 C 38.902344 64.71875 38.988281 64.601562 38.964844 64.480469 L 38.960938 64.441406 "/>
<path style=" stroke:none;fill-rule:nonzero;fill:rgb(0%,0%,0%);fill-opacity:1;" d="M 3.730469 28.609375 L 9.8125 29.785156 C 9.933594 29.808594 10.015625 29.925781 9.992188 30.050781 L 9.21875 34.027344 C 9.191406 34.148438 9.074219 34.230469 8.949219 34.203125 L 7.417969 33.910156 L 7.597656 35.058594 L 6.492188 33.730469 L 2.871094 33.027344 C 2.746094 33.003906 2.664062 32.886719 2.6875 32.761719 L 3.464844 28.789062 C 3.488281 28.664062 3.605469 28.585938 3.730469 28.609375 "/>
<path style=" stroke:none;fill-rule:nonzero;fill:rgb(100%,100%,100%);fill-opacity:1;" d="M 7.121094 31.558594 C 7.097656 31.683594 7.175781 31.800781 7.300781 31.824219 L 7.335938 31.832031 C 7.460938 31.855469 7.578125 31.777344 7.605469 31.652344 L 7.609375 31.617188 C 7.636719 31.492188 7.554688 31.375 7.429688 31.351562 L 7.394531 31.34375 C 7.269531 31.320312 7.152344 31.398438 7.128906 31.523438 L 7.121094 31.558594 "/>
<path style=" stroke:none;fill-rule:nonzero;fill:rgb(100%,100%,100%);fill-opacity:1;" d="M 6.097656 31.363281 C 6.074219 31.484375 6.15625 31.605469 6.277344 31.628906 L 6.316406 31.632812 C 6.4375 31.660156 6.558594 31.578125 6.582031 31.457031 L 6.589844 31.417969 C 6.613281 31.296875 6.53125 31.175781 6.410156 31.152344 L 6.371094 31.144531 C 6.25 31.121094 6.128906 31.203125 6.105469 31.324219 L 6.097656 31.363281 "/>
<path style=" stroke:none;fill-rule:nonzero;fill:rgb(100%,100%,100%);fill-opacity:1;" d="M 5.074219 31.164062 C 5.050781 31.289062 5.132812 31.40625 5.253906 31.429688 L 5.292969 31.4375 C 5.417969 31.460938 5.535156 31.382812 5.558594 31.257812 L 5.566406 31.21875 C 5.589844 31.097656 5.511719 30.980469 5.386719 30.957031 L 5.347656 30.949219 C 5.226562 30.925781 5.105469 31.003906 5.082031 31.128906 L 5.074219 31.164062 "/>
<g clip-path="url(#clip2)" clip-rule="nonzero">
<path style=" stroke:none;fill-rule:nonzero;fill:rgb(0%,0%,0%);fill-opacity:1;" d="M 7.800781 0.363281 L 12.429688 5.480469 C 12.523438 5.585938 12.515625 5.746094 12.410156 5.835938 L 9.042969 8.863281 C 8.9375 8.957031 8.777344 8.945312 8.683594 8.84375 L 7.515625 7.554688 L 6.902344 8.699219 L 6.816406 6.773438 L 4.058594 3.726562 C 3.964844 3.621094 3.972656 3.464844 4.078125 3.371094 L 7.445312 0.34375 C 7.546875 0.253906 7.710938 0.261719 7.800781 0.363281 "/>
</g>
<path style=" stroke:none;fill-rule:nonzero;fill:rgb(100%,100%,100%);fill-opacity:1;" d="M 8.835938 5.261719 C 8.730469 5.355469 8.722656 5.515625 8.816406 5.617188 L 8.84375 5.652344 C 8.9375 5.753906 9.097656 5.761719 9.203125 5.667969 L 9.234375 5.640625 C 9.339844 5.546875 9.347656 5.386719 9.253906 5.285156 L 9.226562 5.253906 C 9.128906 5.148438 8.96875 5.140625 8.867188 5.234375 L 8.835938 5.261719 "/>
<path style=" stroke:none;fill-rule:nonzero;fill:rgb(100%,100%,100%);fill-opacity:1;" d="M 8.058594 4.402344 C 7.953125 4.496094 7.945312 4.65625 8.039062 4.757812 L 8.066406 4.789062 C 8.160156 4.894531 8.320312 4.902344 8.425781 4.808594 L 8.457031 4.78125 C 8.5625 4.6875 8.570312 4.527344 8.476562 4.421875 L 8.449219 4.390625 C 8.351562 4.289062 8.191406 4.28125 8.089844 4.375 L 8.058594 4.402344 "/>
<path style=" stroke:none;fill-rule:nonzero;fill:rgb(100%,100%,100%);fill-opacity:1;" d="M 7.28125 3.542969 C 7.175781 3.636719 7.167969 3.796875 7.261719 3.898438 L 7.289062 3.929688 C 7.382812 4.035156 7.542969 4.042969 7.648438 3.949219 L 7.679688 3.921875 C 7.785156 3.828125 7.792969 3.667969 7.699219 3.5625 L 7.671875 3.53125 C 7.574219 3.429688 7.414062 3.421875 7.3125 3.515625 L 7.28125 3.542969 "/>
<path style=" stroke:none;fill-rule:nonzero;fill:rgb(0%,0%,0%);fill-opacity:1;" d="M 3.234375 66.574219 L 4.390625 60.996094 C 4.417969 60.882812 4.527344 60.8125 4.640625 60.835938 L 8.3125 61.59375 C 8.425781 61.617188 8.496094 61.726562 8.472656 61.839844 L 8.179688 63.246094 L 9.246094 63.09375 L 8.003906 64.09375 L 7.3125 67.417969 C 7.292969 67.527344 7.179688 67.601562 7.066406 67.578125 L 3.398438 66.820312 C 3.285156 66.796875 3.210938 66.6875 3.234375 66.574219 "/>
<path style=" stroke:none;fill-rule:nonzero;fill:rgb(100%,100%,100%);fill-opacity:1;" d="M 6.003906 63.492188 C 6.117188 63.515625 6.230469 63.441406 6.253906 63.328125 L 6.257812 63.292969 C 6.28125 63.183594 6.210938 63.070312 6.097656 63.046875 L 6.0625 63.042969 C 5.949219 63.019531 5.839844 63.089844 5.816406 63.203125 L 5.808594 63.238281 C 5.785156 63.351562 5.859375 63.460938 5.96875 63.484375 L 6.003906 63.492188 "/>
<path style=" stroke:none;fill-rule:nonzero;fill:rgb(100%,100%,100%);fill-opacity:1;" d="M 5.808594 64.429688 C 5.921875 64.453125 6.035156 64.378906 6.058594 64.265625 L 6.0625 64.230469 C 6.089844 64.121094 6.015625 64.007812 5.902344 63.984375 L 5.867188 63.976562 C 5.753906 63.953125 5.644531 64.027344 5.621094 64.140625 L 5.613281 64.175781 C 5.589844 64.289062 5.664062 64.398438 5.777344 64.421875 L 5.808594 64.429688 "/>
<path style=" stroke:none;fill-rule:nonzero;fill:rgb(100%,100%,100%);fill-opacity:1;" d="M 5.617188 65.367188 C 5.730469 65.390625 5.839844 65.316406 5.863281 65.203125 L 5.871094 65.167969 C 5.894531 65.054688 5.820312 64.945312 5.707031 64.921875 L 5.671875 64.914062 C 5.558594 64.890625 5.449219 64.964844 5.425781 65.078125 L 5.417969 65.113281 C 5.394531 65.226562 5.46875 65.335938 5.582031 65.359375 L 5.617188 65.367188 "/>
<path style=" stroke:none;fill-rule:nonzero;fill:rgb(0%,0%,0%);fill-opacity:1;" d="M 47.457031 46.144531 L 51.429688 51.359375 C 51.507812 51.464844 51.488281 51.617188 51.382812 51.695312 L 47.949219 54.292969 C 47.84375 54.375 47.691406 54.351562 47.613281 54.246094 L 46.609375 52.929688 L 45.9375 53.96875 L 46.007812 52.140625 L 43.640625 49.03125 C 43.5625 48.925781 43.582031 48.777344 43.6875 48.695312 L 47.121094 46.101562 C 47.226562 46.019531 47.378906 46.039062 47.457031 46.144531 "/>
<path style=" stroke:none;fill-rule:nonzero;fill:rgb(100%,100%,100%);fill-opacity:1;" d="M 48.042969 50.867188 C 47.9375 50.945312 47.917969 51.097656 47.996094 51.203125 L 48.019531 51.234375 C 48.101562 51.339844 48.253906 51.363281 48.359375 51.28125 L 48.390625 51.257812 C 48.496094 51.175781 48.515625 51.027344 48.4375 50.921875 L 48.414062 50.890625 C 48.332031 50.785156 48.179688 50.761719 48.074219 50.84375 L 48.042969 50.867188 "/>
<path style=" stroke:none;fill-rule:nonzero;fill:rgb(100%,100%,100%);fill-opacity:1;" d="M 47.375 49.988281 C 47.269531 50.070312 47.25 50.222656 47.328125 50.328125 L 47.355469 50.359375 C 47.433594 50.464844 47.585938 50.484375 47.691406 50.40625 L 47.722656 50.378906 C 47.828125 50.300781 47.851562 50.148438 47.769531 50.042969 L 47.746094 50.011719 C 47.664062 49.90625 47.515625 49.886719 47.40625 49.964844 L 47.375 49.988281 "/>
<path style=" stroke:none;fill-rule:nonzero;fill:rgb(100%,100%,100%);fill-opacity:1;" d="M 46.707031 49.113281 C 46.601562 49.195312 46.582031 49.34375 46.660156 49.449219 L 46.6875 49.484375 C 46.765625 49.589844 46.917969 49.609375 47.023438 49.527344 L 47.054688 49.503906 C 47.160156 49.425781 47.183594 49.273438 47.101562 49.167969 L 47.078125 49.136719 C 46.996094 49.03125 46.847656 49.007812 46.742188 49.089844 L 46.707031 49.113281 "/>
<path style=" stroke:none;fill-rule:nonzero;fill:rgb(0%,0%,0%);fill-opacity:1;" d="M 66.667969 4.582031 L 62.050781 8.273438 C 61.957031 8.351562 61.820312 8.335938 61.746094 8.242188 L 59.316406 5.222656 C 59.242188 5.132812 59.253906 4.996094 59.347656 4.921875 L 60.511719 3.988281 L 59.558594 3.410156 L 61.214844 3.425781 L 63.964844 1.226562 C 64.058594 1.152344 64.195312 1.167969 64.269531 1.261719 L 66.699219 4.277344 C 66.773438 4.371094 66.757812 4.507812 66.667969 4.582031 "/>
<path style=" stroke:none;fill-rule:nonzero;fill:rgb(100%,100%,100%);fill-opacity:1;" d="M 62.414062 5.222656 C 62.339844 5.128906 62.203125 5.117188 62.109375 5.1875 L 62.082031 5.214844 C 61.988281 5.285156 61.972656 5.425781 62.046875 5.515625 L 62.070312 5.546875 C 62.144531 5.636719 62.28125 5.652344 62.375 5.578125 L 62.402344 5.554688 C 62.496094 5.480469 62.511719 5.34375 62.4375 5.25 L 62.414062 5.222656 "/>
<path style=" stroke:none;fill-rule:nonzero;fill:rgb(100%,100%,100%);fill-opacity:1;" d="M 63.191406 4.601562 C 63.113281 4.507812 62.976562 4.496094 62.882812 4.570312 L 62.855469 4.59375 C 62.761719 4.667969 62.746094 4.804688 62.824219 4.894531 L 62.84375 4.925781 C 62.921875 5.019531 63.058594 5.03125 63.148438 4.957031 L 63.179688 4.933594 C 63.273438 4.859375 63.289062 4.722656 63.210938 4.628906 L 63.191406 4.601562 "/>
<path style=" stroke:none;fill-rule:nonzero;fill:rgb(100%,100%,100%);fill-opacity:1;" d="M 63.964844 3.980469 C 63.890625 3.886719 63.753906 3.875 63.660156 3.949219 L 63.632812 3.972656 C 63.539062 4.046875 63.523438 4.183594 63.597656 4.277344 L 63.621094 4.304688 C 63.695312 4.398438 63.832031 4.410156 63.925781 4.335938 L 63.953125 4.3125 C 64.046875 4.238281 64.0625 4.101562 63.988281 4.011719 L 63.964844 3.980469 "/>
<g clip-path="url(#clip3)" clip-rule="nonzero">
<path style=" stroke:none;fill-rule:nonzero;fill:rgb(0%,0%,0%);fill-opacity:1;" d="M 69.597656 61.09375 L 69.03125 67.859375 C 69.015625 67.996094 68.898438 68.097656 68.757812 68.085938 L 64.304688 67.714844 C 64.167969 67.703125 64.066406 67.582031 64.078125 67.445312 L 64.222656 65.738281 L 62.980469 66.074219 L 64.308594 64.710938 L 64.644531 60.679688 C 64.65625 60.542969 64.777344 60.441406 64.917969 60.453125 L 69.367188 60.824219 C 69.507812 60.835938 69.609375 60.957031 69.597656 61.09375 "/>
</g>
<path style=" stroke:none;fill-rule:nonzero;fill:rgb(100%,100%,100%);fill-opacity:1;" d="M 66.761719 65.136719 C 66.625 65.125 66.503906 65.226562 66.492188 65.367188 L 66.488281 65.40625 C 66.476562 65.542969 66.578125 65.664062 66.714844 65.675781 L 66.757812 65.679688 C 66.894531 65.691406 67.015625 65.589844 67.027344 65.453125 L 67.03125 65.410156 C 67.042969 65.273438 66.941406 65.152344 66.804688 65.140625 L 66.761719 65.136719 "/>
<path style=" stroke:none;fill-rule:nonzero;fill:rgb(100%,100%,100%);fill-opacity:1;" d="M 66.855469 64 C 66.71875 63.988281 66.597656 64.089844 66.585938 64.226562 L 66.585938 64.269531 C 66.570312 64.40625 66.675781 64.527344 66.8125 64.539062 L 66.851562 64.542969 C 66.992188 64.554688 67.113281 64.453125 67.125 64.316406 L 67.125 64.273438 C 67.136719 64.136719 67.035156 64.015625 66.898438 64.003906 L 66.855469 64 "/>
<path style=" stroke:none;fill-rule:nonzero;fill:rgb(100%,100%,100%);fill-opacity:1;" d="M 66.953125 62.863281 C 66.816406 62.851562 66.695312 62.953125 66.683594 63.089844 L 66.679688 63.132812 C 66.667969 63.269531 66.769531 63.390625 66.90625 63.402344 L 66.949219 63.40625 C 67.085938 63.417969 67.207031 63.3125 67.21875 63.175781 L 67.222656 63.136719 C 67.234375 63 67.132812 62.878906 66.992188 62.867188 L 66.953125 62.863281 "/>
<path style=" stroke:none;fill-rule:nonzero;fill:rgb(0%,0%,0%);fill-opacity:1;" d="M 68.089844 46.652344 L 66.015625 52.519531 C 65.976562 52.640625 65.84375 52.703125 65.726562 52.660156 L 61.863281 51.304688 C 61.746094 51.261719 61.683594 51.132812 61.722656 51.015625 L 62.246094 49.535156 L 61.070312 49.542969 L 62.5625 48.644531 L 63.796875 45.148438 C 63.839844 45.027344 63.96875 44.964844 64.089844 45.007812 L 67.949219 46.363281 C 68.070312 46.40625 68.132812 46.535156 68.089844 46.652344 "/>
<path style=" stroke:none;fill-rule:nonzero;fill:rgb(100%,100%,100%);fill-opacity:1;" d="M 64.640625 49.585938 C 64.519531 49.542969 64.386719 49.605469 64.347656 49.726562 L 64.332031 49.761719 C 64.292969 49.878906 64.355469 50.011719 64.472656 50.050781 L 64.507812 50.066406 C 64.628906 50.105469 64.757812 50.042969 64.800781 49.925781 L 64.8125 49.890625 C 64.855469 49.769531 64.792969 49.640625 64.675781 49.597656 L 64.640625 49.585938 "/>
<path style=" stroke:none;fill-rule:nonzero;fill:rgb(100%,100%,100%);fill-opacity:1;" d="M 64.988281 48.597656 C 64.867188 48.558594 64.738281 48.621094 64.695312 48.738281 L 64.683594 48.773438 C 64.640625 48.894531 64.703125 49.023438 64.820312 49.066406 L 64.859375 49.078125 C 64.976562 49.121094 65.109375 49.058594 65.148438 48.941406 L 65.164062 48.902344 C 65.203125 48.785156 65.140625 48.652344 65.023438 48.613281 L 64.988281 48.597656 "/>
<path style=" stroke:none;fill-rule:nonzero;fill:rgb(100%,100%,100%);fill-opacity:1;" d="M 65.335938 47.613281 C 65.214844 47.570312 65.085938 47.632812 65.042969 47.753906 L 65.03125 47.789062 C 64.988281 47.90625 65.050781 48.039062 65.167969 48.082031 L 65.207031 48.09375 C 65.324219 48.132812 65.457031 48.074219 65.496094 47.953125 L 65.511719 47.917969 C 65.554688 47.796875 65.488281 47.667969 65.371094 47.625 L 65.335938 47.613281 "/>
<path style=" stroke:none;fill-rule:nonzero;fill:rgb(0%,0%,0%);fill-opacity:1;" d="M 16.765625 19.726562 L 23.746094 17.992188 C 23.886719 17.957031 24.03125 18.042969 24.066406 18.183594 L 25.207031 22.746094 C 25.242188 22.886719 25.15625 23.03125 25.011719 23.066406 L 23.253906 23.503906 L 24.007812 24.625 L 22.191406 23.765625 L 18.035156 24.800781 C 17.894531 24.835938 17.75 24.75 17.714844 24.609375 L 16.574219 20.046875 C 16.539062 19.902344 16.625 19.761719 16.765625 19.726562 "/>
<path style=" stroke:none;fill-rule:nonzero;fill:rgb(100%,100%,100%);fill-opacity:1;" d="M 21.785156 21.175781 C 21.820312 21.316406 21.964844 21.402344 22.105469 21.367188 L 22.148438 21.359375 C 22.289062 21.324219 22.375 21.179688 22.339844 21.039062 L 22.332031 20.996094 C 22.292969 20.855469 22.152344 20.769531 22.011719 20.804688 L 21.96875 20.816406 C 21.828125 20.851562 21.738281 20.992188 21.777344 21.132812 L 21.785156 21.175781 "/>
<path style=" stroke:none;fill-rule:nonzero;fill:rgb(100%,100%,100%);fill-opacity:1;" d="M 20.613281 21.46875 C 20.648438 21.609375 20.792969 21.695312 20.933594 21.660156 L 20.976562 21.648438 C 21.117188 21.613281 21.203125 21.472656 21.167969 21.332031 L 21.15625 21.289062 C 21.121094 21.148438 20.980469 21.0625 20.835938 21.097656 L 20.796875 21.105469 C 20.652344 21.140625 20.566406 21.285156 20.601562 21.425781 L 20.613281 21.46875 "/>
<path style=" stroke:none;fill-rule:nonzero;fill:rgb(100%,100%,100%);fill-opacity:1;" d="M 19.441406 21.757812 C 19.476562 21.898438 19.617188 21.984375 19.761719 21.949219 L 19.804688 21.941406 C 19.945312 21.90625 20.03125 21.761719 19.996094 21.621094 L 19.984375 21.578125 C 19.949219 21.4375 19.804688 21.351562 19.664062 21.386719 L 19.621094 21.398438 C 19.480469 21.433594 19.394531 21.574219 19.429688 21.71875 L 19.441406 21.757812 "/>
<path style=" stroke:none;fill-rule:nonzero;fill:rgb(0%,0%,0%);fill-opacity:1;" d="M 9.617188 46.863281 L 4.421875 51.351562 C 4.316406 51.441406 4.160156 51.429688 4.066406 51.324219 L 1.113281 47.929688 C 1.023438 47.824219 1.03125 47.667969 1.136719 47.574219 L 2.449219 46.441406 L 1.316406 45.8125 L 3.238281 45.761719 L 6.332031 43.085938 C 6.4375 42.996094 6.597656 43.007812 6.6875 43.113281 L 9.640625 46.507812 C 9.734375 46.613281 9.722656 46.769531 9.617188 46.863281 "/>
<path style=" stroke:none;fill-rule:nonzero;fill:rgb(100%,100%,100%);fill-opacity:1;" d="M 4.710938 47.792969 C 4.617188 47.6875 4.457031 47.675781 4.355469 47.765625 L 4.320312 47.796875 C 4.214844 47.886719 4.203125 48.042969 4.296875 48.148438 L 4.324219 48.179688 C 4.414062 48.285156 4.574219 48.296875 4.679688 48.207031 L 4.710938 48.179688 C 4.816406 48.085938 4.828125 47.929688 4.738281 47.824219 L 4.710938 47.792969 "/>
<path style=" stroke:none;fill-rule:nonzero;fill:rgb(100%,100%,100%);fill-opacity:1;" d="M 5.582031 47.039062 C 5.492188 46.933594 5.332031 46.921875 5.226562 47.011719 L 5.195312 47.039062 C 5.089844 47.132812 5.078125 47.289062 5.167969 47.394531 L 5.195312 47.425781 C 5.289062 47.53125 5.449219 47.542969 5.550781 47.453125 L 5.585938 47.421875 C 5.691406 47.332031 5.699219 47.175781 5.609375 47.070312 L 5.582031 47.039062 "/>
<path style=" stroke:none;fill-rule:nonzero;fill:rgb(100%,100%,100%);fill-opacity:1;" d="M 6.453125 46.285156 C 6.363281 46.179688 6.203125 46.167969 6.097656 46.257812 L 6.066406 46.285156 C 5.960938 46.375 5.949219 46.535156 6.042969 46.640625 L 6.070312 46.671875 C 6.160156 46.777344 6.320312 46.789062 6.425781 46.699219 L 6.457031 46.667969 C 6.5625 46.578125 6.574219 46.417969 6.480469 46.316406 L 6.453125 46.285156 "/>
<path style=" stroke:none;fill-rule:nonzero;fill:rgb(0%,0%,0%);fill-opacity:1;" d="M 50.539062 61.515625 L 55.589844 63 C 55.691406 63.03125 55.75 63.136719 55.71875 63.238281 L 54.742188 66.539062 C 54.714844 66.640625 54.605469 66.699219 54.503906 66.667969 L 53.230469 66.296875 L 53.289062 67.285156 L 52.464844 66.070312 L 49.453125 65.1875 C 49.351562 65.15625 49.292969 65.050781 49.324219 64.949219 L 50.300781 61.648438 C 50.328125 61.542969 50.4375 61.484375 50.539062 61.515625 "/>
<path style=" stroke:none;fill-rule:nonzero;fill:rgb(100%,100%,100%);fill-opacity:1;" d="M 53.167969 64.285156 C 53.140625 64.386719 53.199219 64.492188 53.300781 64.523438 L 53.332031 64.535156 C 53.433594 64.5625 53.539062 64.503906 53.570312 64.402344 L 53.578125 64.371094 C 53.609375 64.269531 53.550781 64.164062 53.449219 64.132812 L 53.417969 64.125 C 53.316406 64.09375 53.207031 64.152344 53.175781 64.253906 L 53.167969 64.285156 "/>
<path style=" stroke:none;fill-rule:nonzero;fill:rgb(100%,100%,100%);fill-opacity:1;" d="M 52.320312 64.035156 C 52.289062 64.136719 52.347656 64.246094 52.449219 64.273438 L 52.480469 64.285156 C 52.585938 64.3125 52.691406 64.257812 52.722656 64.152344 L 52.730469 64.125 C 52.761719 64.019531 52.703125 63.914062 52.601562 63.882812 L 52.570312 63.875 C 52.464844 63.84375 52.359375 63.902344 52.328125 64.003906 L 52.320312 64.035156 "/>
<path style=" stroke:none;fill-rule:nonzero;fill:rgb(100%,100%,100%);fill-opacity:1;" d="M 51.472656 63.785156 C 51.441406 63.890625 51.5 63.996094 51.601562 64.027344 L 51.632812 64.035156 C 51.734375 64.066406 51.84375 64.007812 51.875 63.90625 L 51.882812 63.875 C 51.914062 63.773438 51.855469 63.664062 51.75 63.632812 L 51.71875 63.625 C 51.617188 63.597656 51.511719 63.65625 51.480469 63.757812 L 51.472656 63.785156 "/>
<path style=" stroke:none;fill-rule:nonzero;fill:rgb(0%,0%,0%);fill-opacity:1;" d="M 47.757812 22.277344 L 50.414062 17.078125 C 50.464844 16.972656 50.59375 16.929688 50.699219 16.980469 L 54.125 18.71875 C 54.230469 18.773438 54.273438 18.902344 54.21875 19.007812 L 53.550781 20.320312 L 54.644531 20.453125 L 53.144531 21.109375 L 51.5625 24.210938 C 51.511719 24.316406 51.378906 24.355469 51.273438 24.304688 L 47.851562 22.566406 C 47.746094 22.511719 47.703125 22.382812 47.757812 22.277344 "/>
<path style=" stroke:none;fill-rule:nonzero;fill:rgb(100%,100%,100%);fill-opacity:1;" d="M 51.332031 19.976562 C 51.4375 20.03125 51.566406 19.988281 51.621094 19.882812 L 51.636719 19.851562 C 51.691406 19.746094 51.648438 19.617188 51.542969 19.5625 L 51.511719 19.546875 C 51.40625 19.492188 51.273438 19.535156 51.222656 19.640625 L 51.203125 19.671875 C 51.152344 19.777344 51.191406 19.90625 51.300781 19.960938 L 51.332031 19.976562 "/>
<path style=" stroke:none;fill-rule:nonzero;fill:rgb(100%,100%,100%);fill-opacity:1;" d="M 50.882812 20.851562 C 50.992188 20.90625 51.121094 20.863281 51.171875 20.757812 L 51.191406 20.726562 C 51.242188 20.621094 51.203125 20.488281 51.09375 20.4375 L 51.0625 20.421875 C 50.957031 20.367188 50.828125 20.410156 50.773438 20.515625 L 50.757812 20.546875 C 50.703125 20.652344 50.746094 20.78125 50.851562 20.835938 L 50.882812 20.851562 "/>
<path style=" stroke:none;fill-rule:nonzero;fill:rgb(100%,100%,100%);fill-opacity:1;" d="M 50.4375 21.722656 C 50.542969 21.777344 50.671875 21.738281 50.726562 21.632812 L 50.742188 21.597656 C 50.796875 21.492188 50.753906 21.363281 50.648438 21.3125 L 50.617188 21.292969 C 50.511719 21.242188 50.382812 21.28125 50.328125 21.386719 L 50.3125 21.421875 C 50.257812 21.527344 50.300781 21.65625 50.40625 21.707031 L 50.4375 21.722656 "/>
<path style=" stroke:none;fill-rule:nonzero;fill:rgb(0%,0%,0%);fill-opacity:1;" d="M 35.675781 29.316406 L 40.613281 33.867188 C 40.710938 33.957031 40.71875 34.113281 40.625 34.214844 L 37.632812 37.441406 C 37.539062 37.539062 37.386719 37.546875 37.285156 37.453125 L 36.039062 36.304688 L 35.546875 37.472656 L 35.289062 35.617188 L 32.347656 32.90625 C 32.25 32.8125 32.242188 32.65625 32.335938 32.558594 L 35.328125 29.332031 C 35.421875 29.230469 35.578125 29.226562 35.675781 29.316406 "/>
<path style=" stroke:none;fill-rule:nonzero;fill:rgb(100%,100%,100%);fill-opacity:1;" d="M 37.113281 33.972656 C 37.019531 34.070312 37.027344 34.226562 37.125 34.320312 L 37.15625 34.347656 C 37.257812 34.4375 37.414062 34.433594 37.503906 34.332031 L 37.53125 34.300781 C 37.625 34.203125 37.617188 34.046875 37.519531 33.957031 L 37.488281 33.925781 C 37.386719 33.835938 37.234375 33.839844 37.140625 33.941406 L 37.113281 33.972656 "/>
<path style=" stroke:none;fill-rule:nonzero;fill:rgb(100%,100%,100%);fill-opacity:1;" d="M 36.28125 33.207031 C 36.191406 33.304688 36.195312 33.460938 36.296875 33.554688 L 36.328125 33.582031 C 36.425781 33.671875 36.582031 33.667969 36.675781 33.570312 L 36.703125 33.539062 C 36.796875 33.4375 36.789062 33.285156 36.6875 33.191406 L 36.660156 33.164062 C 36.558594 33.070312 36.402344 33.078125 36.308594 33.175781 L 36.28125 33.207031 "/>
<path style=" stroke:none;fill-rule:nonzero;fill:rgb(100%,100%,100%);fill-opacity:1;" d="M 35.453125 32.441406 C 35.359375 32.542969 35.367188 32.699219 35.464844 32.789062 L 35.496094 32.816406 C 35.597656 32.910156 35.753906 32.902344 35.84375 32.804688 L 35.875 32.773438 C 35.964844 32.675781 35.960938 32.519531 35.859375 32.425781 L 35.828125 32.398438 C 35.730469 32.308594 35.574219 32.3125 35.480469 32.414062 L 35.453125 32.441406 "/>
<path style=" stroke:none;fill-rule:nonzero;fill:rgb(0%,0%,0%);fill-opacity:1;" d="M 14.050781 50.328125 L 20.761719 49.238281 C 20.898438 49.214844 21.023438 49.308594 21.046875 49.441406 L 21.765625 53.832031 C 21.789062 53.964844 21.695312 54.09375 21.558594 54.117188 L 19.867188 54.390625 L 20.492188 55.507812 L 18.847656 54.558594 L 14.847656 55.207031 C 14.710938 55.230469 14.585938 55.136719 14.5625 55 L 13.84375 50.613281 C 13.820312 50.480469 13.914062 50.351562 14.050781 50.328125 "/>
<path style=" stroke:none;fill-rule:nonzero;fill:rgb(100%,100%,100%);fill-opacity:1;" d="M 18.664062 52.085938 C 18.6875 52.222656 18.816406 52.3125 18.953125 52.289062 L 18.992188 52.285156 C 19.128906 52.261719 19.222656 52.132812 19.199219 52 L 19.191406 51.957031 C 19.171875 51.824219 19.042969 51.730469 18.90625 51.753906 L 18.867188 51.757812 C 18.730469 51.78125 18.636719 51.910156 18.660156 52.042969 L 18.664062 52.085938 "/>
<path style=" stroke:none;fill-rule:nonzero;fill:rgb(100%,100%,100%);fill-opacity:1;" d="M 17.539062 52.269531 C 17.558594 52.402344 17.6875 52.496094 17.824219 52.472656 L 17.867188 52.46875 C 18 52.445312 18.09375 52.316406 18.070312 52.183594 L 18.066406 52.140625 C 18.042969 52.003906 17.914062 51.914062 17.777344 51.9375 L 17.738281 51.941406 C 17.601562 51.964844 17.507812 52.09375 17.53125 52.226562 L 17.539062 52.269531 "/>
<path style=" stroke:none;fill-rule:nonzero;fill:rgb(100%,100%,100%);fill-opacity:1;" d="M 16.410156 52.453125 C 16.433594 52.585938 16.5625 52.679688 16.695312 52.65625 L 16.738281 52.652344 C 16.875 52.628906 16.964844 52.5 16.945312 52.367188 L 16.9375 52.324219 C 16.914062 52.1875 16.785156 52.097656 16.652344 52.117188 L 16.609375 52.125 C 16.472656 52.148438 16.382812 52.277344 16.402344 52.410156 L 16.410156 52.453125 "/>
<path style=" stroke:none;fill-rule:nonzero;fill:rgb(0%,0%,0%);fill-opacity:1;" d="M 36.089844 13.871094 L 39.578125 19.460938 C 39.648438 19.574219 39.613281 19.726562 39.5 19.792969 L 35.820312 22.078125 C 35.707031 22.148438 35.558594 22.113281 35.488281 22 L 34.605469 20.589844 L 33.835938 21.5625 L 34.078125 19.738281 L 31.996094 16.40625 C 31.925781 16.296875 31.960938 16.144531 32.074219 16.074219 L 35.753906 13.792969 C 35.867188 13.722656 36.019531 13.757812 36.089844 13.871094 "/>
<path style=" stroke:none;fill-rule:nonzero;fill:rgb(100%,100%,100%);fill-opacity:1;" d="M 36.234375 18.652344 C 36.121094 18.722656 36.085938 18.875 36.15625 18.988281 L 36.175781 19.019531 C 36.246094 19.132812 36.398438 19.167969 36.511719 19.097656 L 36.542969 19.078125 C 36.65625 19.007812 36.691406 18.859375 36.621094 18.742188 L 36.601562 18.710938 C 36.53125 18.597656 36.378906 18.5625 36.265625 18.632812 L 36.234375 18.652344 "/>
<path style=" stroke:none;fill-rule:nonzero;fill:rgb(100%,100%,100%);fill-opacity:1;" d="M 35.648438 17.714844 C 35.53125 17.785156 35.496094 17.933594 35.570312 18.046875 L 35.589844 18.082031 C 35.660156 18.195312 35.808594 18.230469 35.921875 18.160156 L 35.957031 18.136719 C 36.070312 18.066406 36.105469 17.917969 36.035156 17.804688 L 36.015625 17.769531 C 35.945312 17.65625 35.792969 17.621094 35.679688 17.695312 L 35.648438 17.714844 "/>
<path style=" stroke:none;fill-rule:nonzero;fill:rgb(100%,100%,100%);fill-opacity:1;" d="M 35.058594 16.773438 C 34.945312 16.84375 34.910156 16.996094 34.980469 17.105469 L 35.003906 17.140625 C 35.074219 17.253906 35.222656 17.289062 35.335938 17.21875 L 35.371094 17.199219 C 35.484375 17.128906 35.519531 16.980469 35.449219 16.863281 L 35.429688 16.832031 C 35.355469 16.71875 35.207031 16.683594 35.09375 16.753906 L 35.058594 16.773438 "/>
<path style=" stroke:none;fill-rule:nonzero;fill:rgb(0%,0%,0%);fill-opacity:1;" d="M 41.832031 8.636719 L 41.550781 1.742188 C 41.546875 1.605469 41.65625 1.488281 41.792969 1.480469 L 46.332031 1.296875 C 46.472656 1.289062 46.589844 1.398438 46.59375 1.539062 L 46.667969 3.277344 L 47.875 2.785156 L 46.707031 4.324219 L 46.878906 8.433594 C 46.882812 8.570312 46.773438 8.6875 46.632812 8.695312 L 42.097656 8.878906 C 41.957031 8.886719 41.839844 8.777344 41.832031 8.636719 "/>
<path style=" stroke:none;fill-rule:nonzero;fill:rgb(100%,100%,100%);fill-opacity:1;" d="M 44.179688 4.203125 C 44.320312 4.199219 44.429688 4.082031 44.425781 3.941406 L 44.421875 3.898438 C 44.417969 3.757812 44.296875 3.648438 44.160156 3.65625 L 44.117188 3.65625 C 43.976562 3.664062 43.867188 3.78125 43.871094 3.921875 L 43.875 3.960938 C 43.878906 4.101562 44 4.210938 44.136719 4.207031 L 44.179688 4.203125 "/>
<path style=" stroke:none;fill-rule:nonzero;fill:rgb(100%,100%,100%);fill-opacity:1;" d="M 44.226562 5.363281 C 44.367188 5.355469 44.476562 5.238281 44.472656 5.097656 L 44.46875 5.054688 C 44.464844 4.917969 44.347656 4.808594 44.207031 4.8125 L 44.164062 4.816406 C 44.023438 4.820312 43.914062 4.9375 43.917969 5.078125 L 43.921875 5.121094 C 43.929688 5.261719 44.046875 5.371094 44.1875 5.363281 L 44.226562 5.363281 "/>
<path style=" stroke:none;fill-rule:nonzero;fill:rgb(100%,100%,100%);fill-opacity:1;" d="M 44.277344 6.519531 C 44.417969 6.515625 44.523438 6.398438 44.519531 6.257812 L 44.515625 6.214844 C 44.511719 6.074219 44.394531 5.96875 44.253906 5.972656 L 44.210938 5.972656 C 44.070312 5.980469 43.960938 6.097656 43.96875 6.238281 L 43.96875 6.28125 C 43.976562 6.417969 44.09375 6.527344 44.234375 6.523438 L 44.277344 6.519531 "/>
<path style=" stroke:none;fill-rule:nonzero;fill:rgb(0%,0%,0%);fill-opacity:1;" d="M 21.289062 33.414062 L 24.417969 38.878906 C 24.480469 38.988281 24.441406 39.132812 24.332031 39.195312 L 20.734375 41.238281 C 20.625 41.304688 20.484375 41.265625 20.417969 41.152344 L 19.628906 39.773438 L 18.859375 40.679688 L 19.15625 38.945312 L 17.292969 35.691406 C 17.226562 35.578125 17.265625 35.4375 17.378906 35.375 L 20.972656 33.328125 C 21.082031 33.265625 21.226562 33.304688 21.289062 33.414062 "/>
<path style=" stroke:none;fill-rule:nonzero;fill:rgb(100%,100%,100%);fill-opacity:1;" d="M 21.253906 37.988281 C 21.144531 38.050781 21.101562 38.191406 21.167969 38.300781 L 21.1875 38.335938 C 21.25 38.445312 21.390625 38.484375 21.503906 38.421875 L 21.535156 38.402344 C 21.648438 38.339844 21.6875 38.199219 21.621094 38.085938 L 21.601562 38.054688 C 21.539062 37.941406 21.398438 37.90625 21.285156 37.96875 L 21.253906 37.988281 "/>
<path style=" stroke:none;fill-rule:nonzero;fill:rgb(100%,100%,100%);fill-opacity:1;" d="M 20.726562 37.066406 C 20.617188 37.132812 20.578125 37.273438 20.640625 37.382812 L 20.660156 37.417969 C 20.722656 37.527344 20.867188 37.566406 20.976562 37.503906 L 21.011719 37.484375 C 21.121094 37.421875 21.160156 37.28125 21.097656 37.167969 L 21.078125 37.136719 C 21.015625 37.023438 20.871094 36.988281 20.761719 37.050781 L 20.726562 37.066406 "/>
<path style=" stroke:none;fill-rule:nonzero;fill:rgb(100%,100%,100%);fill-opacity:1;" d="M 20.203125 36.152344 C 20.089844 36.214844 20.050781 36.355469 20.117188 36.464844 L 20.132812 36.5 C 20.199219 36.609375 20.339844 36.648438 20.449219 36.585938 L 20.484375 36.566406 C 20.59375 36.503906 20.632812 36.363281 20.570312 36.25 L 20.550781 36.21875 C 20.488281 36.105469 20.347656 36.070312 20.234375 36.132812 L 20.203125 36.152344 "/>
<path style=" stroke:none;fill-rule:nonzero;fill:rgb(0%,0%,0%);fill-opacity:1;" d="M 55.265625 36.945312 L 49.980469 39.785156 C 49.875 39.839844 49.742188 39.800781 49.683594 39.695312 L 47.816406 36.238281 C 47.757812 36.132812 47.796875 36 47.90625 35.941406 L 49.238281 35.226562 L 48.394531 34.472656 L 50.039062 34.796875 L 53.1875 33.105469 C 53.296875 33.046875 53.429688 33.085938 53.488281 33.195312 L 55.355469 36.648438 C 55.414062 36.753906 55.371094 36.890625 55.265625 36.945312 "/>
<path style=" stroke:none;fill-rule:nonzero;fill:rgb(100%,100%,100%);fill-opacity:1;" d="M 50.90625 36.804688 C 50.847656 36.699219 50.714844 36.660156 50.609375 36.71875 L 50.574219 36.734375 C 50.46875 36.792969 50.429688 36.925781 50.484375 37.03125 L 50.503906 37.0625 C 50.5625 37.171875 50.695312 37.210938 50.800781 37.152344 L 50.835938 37.136719 C 50.941406 37.078125 50.980469 36.945312 50.921875 36.835938 L 50.90625 36.804688 "/>
<path style=" stroke:none;fill-rule:nonzero;fill:rgb(100%,100%,100%);fill-opacity:1;" d="M 51.792969 36.328125 C 51.738281 36.222656 51.601562 36.183594 51.496094 36.238281 L 51.464844 36.257812 C 51.355469 36.316406 51.316406 36.449219 51.375 36.554688 L 51.390625 36.585938 C 51.449219 36.695312 51.582031 36.734375 51.691406 36.675781 L 51.722656 36.660156 C 51.828125 36.601562 51.871094 36.46875 51.8125 36.363281 L 51.792969 36.328125 "/>
<path style=" stroke:none;fill-rule:nonzero;fill:rgb(100%,100%,100%);fill-opacity:1;" d="M 52.683594 35.851562 C 52.625 35.746094 52.492188 35.707031 52.382812 35.761719 L 52.351562 35.78125 C 52.246094 35.839844 52.203125 35.972656 52.261719 36.078125 L 52.28125 36.109375 C 52.335938 36.214844 52.472656 36.257812 52.578125 36.199219 L 52.609375 36.179688 C 52.71875 36.125 52.757812 35.992188 52.699219 35.882812 L 52.683594 35.851562 "/>
<path style=" stroke:none;fill-rule:nonzero;fill:rgb(0%,0%,0%);fill-opacity:1;" d="M 8.894531 20.246094 L 3.046875 19.886719 C 2.925781 19.878906 2.835938 19.777344 2.84375 19.660156 L 3.082031 15.835938 C 3.085938 15.71875 3.1875 15.628906 3.308594 15.632812 L 4.78125 15.726562 L 4.472656 14.667969 L 5.671875 15.78125 L 9.15625 15.992188 C 9.273438 16 9.363281 16.101562 9.355469 16.21875 L 9.121094 20.042969 C 9.113281 20.160156 9.011719 20.25 8.894531 20.246094 "/>
<path style=" stroke:none;fill-rule:nonzero;fill:rgb(100%,100%,100%);fill-opacity:1;" d="M 5.351562 17.890625 C 5.355469 17.773438 5.265625 17.671875 5.148438 17.664062 L 5.113281 17.660156 C 4.996094 17.65625 4.894531 17.746094 4.886719 17.863281 L 4.882812 17.898438 C 4.875 18.015625 4.964844 18.117188 5.085938 18.125 L 5.121094 18.128906 C 5.238281 18.136719 5.339844 18.046875 5.347656 17.925781 L 5.351562 17.890625 "/>
<path style=" stroke:none;fill-rule:nonzero;fill:rgb(100%,100%,100%);fill-opacity:1;" d="M 6.332031 17.953125 C 6.339844 17.832031 6.25 17.730469 6.132812 17.722656 L 6.097656 17.722656 C 5.976562 17.714844 5.875 17.804688 5.867188 17.921875 L 5.867188 17.957031 C 5.859375 18.078125 5.949219 18.179688 6.066406 18.183594 L 6.101562 18.1875 C 6.222656 18.195312 6.324219 18.105469 6.332031 17.988281 L 6.332031 17.953125 "/>
<path style=" stroke:none;fill-rule:nonzero;fill:rgb(100%,100%,100%);fill-opacity:1;" d="M 7.316406 18.011719 C 7.324219 17.894531 7.234375 17.792969 7.113281 17.785156 L 7.078125 17.78125 C 6.960938 17.773438 6.859375 17.863281 6.851562 17.984375 L 6.847656 18.019531 C 6.839844 18.136719 6.933594 18.238281 7.050781 18.246094 L 7.085938 18.246094 C 7.203125 18.253906 7.304688 18.164062 7.3125 18.046875 L 7.316406 18.011719 "/>
<g clip-path="url(#clip4)" clip-rule="nonzero">
<path style=" stroke:none;fill-rule:nonzero;fill:rgb(0%,0%,0%);fill-opacity:1;" d="M 67.539062 36.414062 L 62.183594 33.699219 C 62.074219 33.644531 62.03125 33.511719 62.085938 33.402344 L 63.875 29.902344 C 63.929688 29.792969 64.0625 29.75 64.171875 29.804688 L 65.519531 30.492188 L 65.660156 29.367188 L 66.335938 30.902344 L 69.527344 32.519531 C 69.632812 32.574219 69.679688 32.707031 69.625 32.816406 L 67.835938 36.316406 C 67.78125 36.425781 67.648438 36.46875 67.539062 36.414062 "/>
</g>
<path style=" stroke:none;fill-rule:nonzero;fill:rgb(100%,100%,100%);fill-opacity:1;" d="M 65.167969 32.757812 C 65.222656 32.652344 65.179688 32.519531 65.070312 32.464844 L 65.039062 32.445312 C 64.929688 32.390625 64.796875 32.433594 64.742188 32.542969 L 64.726562 32.574219 C 64.671875 32.683594 64.714844 32.816406 64.824219 32.871094 L 64.855469 32.886719 C 64.964844 32.941406 65.097656 32.898438 65.152344 32.792969 L 65.167969 32.757812 "/>
<path style=" stroke:none;fill-rule:nonzero;fill:rgb(100%,100%,100%);fill-opacity:1;" d="M 66.070312 33.214844 C 66.125 33.105469 66.082031 32.976562 65.972656 32.917969 L 65.9375 32.902344 C 65.832031 32.847656 65.699219 32.890625 65.644531 33 L 65.625 33.03125 C 65.570312 33.140625 65.613281 33.273438 65.722656 33.328125 L 65.757812 33.34375 C 65.863281 33.398438 65.996094 33.355469 66.050781 33.246094 L 66.070312 33.214844 "/>
<path style=" stroke:none;fill-rule:nonzero;fill:rgb(100%,100%,100%);fill-opacity:1;" d="M 66.96875 33.671875 C 67.023438 33.5625 66.980469 33.429688 66.871094 33.375 L 66.839844 33.359375 C 66.730469 33.304688 66.597656 33.347656 66.542969 33.457031 L 66.527344 33.488281 C 66.472656 33.597656 66.515625 33.730469 66.625 33.785156 L 66.65625 33.800781 C 66.765625 33.855469 66.898438 33.8125 66.953125 33.703125 L 66.96875 33.671875 "/>
<g clip-path="url(#clip5)" clip-rule="nonzero">
<path style=" stroke:none;fill-rule:nonzero;fill:rgb(0%,0%,0%);fill-opacity:1;" d="M 69.921875 15.417969 L 67.691406 22.074219 C 67.644531 22.207031 67.5 22.28125 67.363281 22.234375 L 62.984375 20.777344 C 62.851562 20.730469 62.777344 20.585938 62.824219 20.449219 L 63.386719 18.773438 L 62.058594 18.804688 L 63.722656 17.761719 L 65.054688 13.796875 C 65.097656 13.660156 65.246094 13.589844 65.382812 13.632812 L 69.761719 15.09375 C 69.894531 15.136719 69.96875 15.285156 69.921875 15.417969 "/>
</g>
<path style=" stroke:none;fill-rule:nonzero;fill:rgb(100%,100%,100%);fill-opacity:1;" d="M 66.082031 18.789062 C 65.949219 18.742188 65.800781 18.816406 65.757812 18.949219 L 65.742188 18.992188 C 65.699219 19.125 65.769531 19.269531 65.90625 19.316406 L 65.945312 19.328125 C 66.082031 19.375 66.226562 19.300781 66.273438 19.167969 L 66.289062 19.125 C 66.332031 18.992188 66.261719 18.847656 66.125 18.800781 L 66.082031 18.789062 "/>
<path style=" stroke:none;fill-rule:nonzero;fill:rgb(100%,100%,100%);fill-opacity:1;" d="M 66.457031 17.667969 C 66.324219 17.625 66.175781 17.695312 66.132812 17.832031 L 66.117188 17.871094 C 66.074219 18.007812 66.144531 18.152344 66.28125 18.199219 L 66.320312 18.210938 C 66.457031 18.257812 66.605469 18.183594 66.648438 18.050781 L 66.664062 18.007812 C 66.707031 17.875 66.632812 17.726562 66.5 17.683594 L 66.457031 17.667969 "/>
<path style=" stroke:none;fill-rule:nonzero;fill:rgb(100%,100%,100%);fill-opacity:1;" d="M 66.832031 16.550781 C 66.699219 16.507812 66.550781 16.578125 66.507812 16.714844 L 66.492188 16.753906 C 66.449219 16.890625 66.519531 17.035156 66.65625 17.078125 L 66.695312 17.09375 C 66.832031 17.136719 66.980469 17.066406 67.023438 16.929688 L 67.039062 16.890625 C 67.082031 16.753906 67.011719 16.609375 66.875 16.5625 L 66.832031 16.550781 "/>
<path style=" stroke:none;fill-rule:nonzero;fill:rgb(0%,0%,0%);fill-opacity:1;" d="M 34.664062 45.699219 L 35.457031 52.195312 C 35.472656 52.328125 35.378906 52.449219 35.246094 52.464844 L 30.96875 52.980469 C 30.835938 53 30.714844 52.902344 30.699219 52.773438 L 30.5 51.132812 L 29.394531 51.691406 L 30.378906 50.144531 L 29.90625 46.273438 C 29.890625 46.140625 29.984375 46.023438 30.117188 46.003906 L 34.394531 45.488281 C 34.527344 45.472656 34.648438 45.566406 34.664062 45.699219 "/>
<path style=" stroke:none;fill-rule:nonzero;fill:rgb(100%,100%,100%);fill-opacity:1;" d="M 32.78125 50.070312 C 32.648438 50.085938 32.554688 50.203125 32.570312 50.335938 L 32.574219 50.375 C 32.589844 50.507812 32.710938 50.601562 32.84375 50.585938 L 32.882812 50.582031 C 33.015625 50.566406 33.109375 50.445312 33.09375 50.3125 L 33.089844 50.273438 C 33.074219 50.140625 32.953125 50.046875 32.820312 50.0625 L 32.78125 50.070312 "/>
<path style=" stroke:none;fill-rule:nonzero;fill:rgb(100%,100%,100%);fill-opacity:1;" d="M 32.648438 48.976562 C 32.515625 48.992188 32.421875 49.113281 32.4375 49.242188 L 32.441406 49.285156 C 32.457031 49.414062 32.578125 49.507812 32.710938 49.492188 L 32.75 49.488281 C 32.882812 49.472656 32.976562 49.351562 32.960938 49.222656 L 32.957031 49.179688 C 32.941406 49.050781 32.820312 48.957031 32.6875 48.972656 L 32.648438 48.976562 "/>
<path style=" stroke:none;fill-rule:nonzero;fill:rgb(100%,100%,100%);fill-opacity:1;" d="M 32.515625 47.882812 C 32.382812 47.902344 32.289062 48.019531 32.304688 48.152344 L 32.308594 48.191406 C 32.324219 48.324219 32.445312 48.417969 32.578125 48.402344 L 32.617188 48.398438 C 32.75 48.378906 32.84375 48.261719 32.828125 48.128906 L 32.824219 48.089844 C 32.808594 47.957031 32.6875 47.863281 32.554688 47.878906 L 32.515625 47.882812 "/>
<path style=" stroke:none;fill-rule:nonzero;fill:rgb(0%,0%,0%);fill-opacity:1;" d="M 29.085938 3.328125 L 27.117188 8.855469 C 27.078125 8.96875 26.953125 9.027344 26.839844 8.988281 L 23.203125 7.703125 C 23.089844 7.660156 23.03125 7.539062 23.070312 7.425781 L 23.570312 6.03125 L 22.457031 6.039062 L 23.867188 5.191406 L 25.039062 1.898438 C 25.078125 1.785156 25.203125 1.726562 25.316406 1.765625 L 28.953125 3.054688 C 29.066406 3.09375 29.125 3.214844 29.085938 3.328125 "/>
<path style=" stroke:none;fill-rule:nonzero;fill:rgb(100%,100%,100%);fill-opacity:1;" d="M 25.824219 6.085938 C 25.710938 6.046875 25.589844 6.105469 25.546875 6.214844 L 25.535156 6.25 C 25.496094 6.363281 25.554688 6.484375 25.667969 6.527344 L 25.699219 6.539062 C 25.8125 6.578125 25.9375 6.519531 25.976562 6.40625 L 25.988281 6.371094 C 26.027344 6.261719 25.96875 6.136719 25.855469 6.097656 L 25.824219 6.085938 "/>
<path style=" stroke:none;fill-rule:nonzero;fill:rgb(100%,100%,100%);fill-opacity:1;" d="M 26.15625 5.15625 C 26.042969 5.117188 25.917969 5.175781 25.878906 5.289062 L 25.867188 5.320312 C 25.828125 5.433594 25.886719 5.558594 25.996094 5.597656 L 26.03125 5.609375 C 26.144531 5.648438 26.269531 5.589844 26.308594 5.476562 L 26.320312 5.445312 C 26.359375 5.332031 26.300781 5.207031 26.1875 5.167969 L 26.15625 5.15625 "/>
<path style=" stroke:none;fill-rule:nonzero;fill:rgb(100%,100%,100%);fill-opacity:1;" d="M 26.484375 4.226562 C 26.371094 4.1875 26.25 4.246094 26.210938 4.359375 L 26.195312 4.390625 C 26.15625 4.503906 26.214844 4.628906 26.328125 4.667969 L 26.363281 4.679688 C 26.476562 4.71875 26.597656 4.660156 26.636719 4.546875 L 26.652344 4.515625 C 26.691406 4.402344 26.632812 4.28125 26.519531 4.238281 L 26.484375 4.226562 "/>
<g clip-path="url(#clip6)" clip-rule="nonzero">
<path style=" stroke:none;fill-rule:nonzero;fill:rgb(0%,0%,0%);fill-opacity:1;" d="M 19.546875 66.316406 L 22.40625 62.144531 C 22.464844 62.0625 22.578125 62.039062 22.664062 62.097656 L 25.410156 63.964844 C 25.492188 64.023438 25.515625 64.140625 25.457031 64.222656 L 24.734375 65.277344 L 25.664062 65.511719 L 24.300781 65.910156 L 22.597656 68.394531 C 22.539062 68.480469 22.425781 68.5 22.339844 68.441406 L 19.59375 66.574219 C 19.511719 66.515625 19.488281 66.398438 19.546875 66.316406 "/>
</g>
<path style=" stroke:none;fill-rule:nonzero;fill:rgb(100%,100%,100%);fill-opacity:1;" d="M 22.871094 64.734375 C 22.957031 64.792969 23.070312 64.773438 23.128906 64.6875 L 23.144531 64.660156 C 23.203125 64.578125 23.183594 64.460938 23.097656 64.402344 L 23.074219 64.386719 C 22.988281 64.328125 22.871094 64.351562 22.8125 64.433594 L 22.796875 64.460938 C 22.738281 64.546875 22.761719 64.660156 22.84375 64.71875 L 22.871094 64.734375 "/>
<path style=" stroke:none;fill-rule:nonzero;fill:rgb(100%,100%,100%);fill-opacity:1;" d="M 22.390625 65.4375 C 22.476562 65.496094 22.589844 65.472656 22.648438 65.386719 L 22.667969 65.363281 C 22.722656 65.277344 22.703125 65.164062 22.617188 65.105469 L 22.59375 65.085938 C 22.507812 65.03125 22.390625 65.050781 22.332031 65.136719 L 22.316406 65.160156 C 22.257812 65.246094 22.28125 65.363281 22.363281 65.417969 L 22.390625 65.4375 "/>
<path style=" stroke:none;fill-rule:nonzero;fill:rgb(100%,100%,100%);fill-opacity:1;" d="M 21.910156 66.136719 C 21.996094 66.195312 22.109375 66.171875 22.167969 66.089844 L 22.183594 66.0625 C 22.242188 65.980469 22.222656 65.863281 22.136719 65.804688 L 22.113281 65.789062 C 22.027344 65.730469 21.910156 65.75 21.851562 65.835938 L 21.835938 65.863281 C 21.777344 65.945312 21.800781 66.0625 21.882812 66.121094 L 21.910156 66.136719 "/>
</g>
</defs>
<g id="surface1">
<use xlink:href="#surface5" transform="matrix(1,0,0,1,2,3)" mask="url(#mask0)"/>
</g>
</svg>
