<?xml version="1.0" encoding="UTF-8"?>
<svg xmlns="http://www.w3.org/2000/svg" xmlns:xlink="http://www.w3.org/1999/xlink" width="112.5pt" height="112.499997pt" viewBox="0 0 112.5 112.499997" version="1.2">
<defs>
<clipPath id="clip1">
  <path d="M 6.808594 12.597656 L 57.203125 12.597656 L 57.203125 53.074219 L 6.808594 53.074219 Z M 6.808594 12.597656 "/>
</clipPath>
<clipPath id="clip2">
  <path d="M 66.6875 56.25 L 108.1875 56.25 L 108.1875 89.980469 L 66.6875 89.980469 Z M 66.6875 56.25 "/>
</clipPath>
</defs>
<g id="surface1">
<path style=" stroke:none;fill-rule:nonzero;fill:rgb(25.099182%,20.779419%,38.038635%);fill-opacity:1;" d="M 56.25 3.777344 C 54.53125 3.777344 52.816406 3.863281 51.105469 4.03125 C 49.398438 4.199219 47.699219 4.453125 46.011719 4.785156 C 44.328125 5.121094 42.664062 5.539062 41.019531 6.039062 C 39.375 6.535156 37.757812 7.113281 36.171875 7.773438 C 34.582031 8.429688 33.03125 9.164062 31.515625 9.972656 C 30 10.785156 28.527344 11.667969 27.097656 12.621094 C 25.667969 13.578125 24.289062 14.597656 22.960938 15.6875 C 21.632812 16.777344 20.363281 17.933594 19.148438 19.148438 C 17.933594 20.363281 16.777344 21.632812 15.6875 22.960938 C 14.597656 24.289062 13.578125 25.667969 12.621094 27.097656 C 11.667969 28.527344 10.785156 30 9.972656 31.515625 C 9.164062 33.03125 8.429688 34.582031 7.773438 36.171875 C 7.113281 37.757812 6.535156 39.375 6.039062 41.019531 C 5.539062 42.664062 5.121094 44.328125 4.785156 46.011719 C 4.453125 47.699219 4.199219 49.398438 4.03125 51.105469 C 3.863281 52.816406 3.777344 54.53125 3.777344 56.25 C 3.777344 57.96875 3.863281 59.683594 4.03125 61.394531 C 4.199219 63.101562 4.453125 64.800781 4.785156 66.488281 C 5.121094 68.171875 5.539062 69.835938 6.039062 71.480469 C 6.535156 73.125 7.113281 74.742188 7.773438 76.328125 C 8.429688 77.917969 9.164062 79.46875 9.972656 80.984375 C 10.785156 82.5 11.667969 83.972656 12.621094 85.402344 C 13.578125 86.832031 14.597656 88.210938 15.6875 89.539062 C 16.777344 90.867188 17.933594 92.136719 19.148438 93.351562 C 20.363281 94.566406 21.632812 95.71875 22.960938 96.8125 C 24.289062 97.902344 25.667969 98.921875 27.097656 99.878906 C 28.527344 100.832031 30 101.714844 31.515625 102.527344 C 33.03125 103.335938 34.582031 104.070312 36.171875 104.726562 C 37.757812 105.386719 39.375 105.964844 41.019531 106.460938 C 42.664062 106.960938 44.328125 107.378906 46.011719 107.714844 C 47.699219 108.046875 49.398438 108.300781 51.105469 108.46875 C 52.816406 108.636719 54.53125 108.722656 56.25 108.722656 C 57.96875 108.722656 59.683594 108.636719 61.394531 108.46875 C 63.101562 108.300781 64.800781 108.046875 66.488281 107.714844 C 68.171875 107.378906 69.835938 106.960938 71.480469 106.460938 C 73.125 105.964844 74.742188 105.386719 76.328125 104.726562 C 77.917969 104.070312 79.46875 103.335938 80.984375 102.527344 C 82.5 101.714844 83.972656 100.832031 85.402344 99.878906 C 86.832031 98.921875 88.210938 97.902344 89.539062 96.8125 C 90.867188 95.71875 92.136719 94.566406 93.351562 93.351562 C 94.566406 92.136719 95.71875 90.867188 96.8125 89.539062 C 97.902344 88.210938 98.921875 86.832031 99.878906 85.402344 C 100.832031 83.972656 101.714844 82.5 102.527344 80.984375 C 103.335938 79.46875 104.070312 77.917969 104.726562 76.328125 C 105.386719 74.742188 105.964844 73.125 106.460938 71.480469 C 106.960938 69.835938 107.378906 68.171875 107.714844 66.488281 C 108.046875 64.800781 108.300781 63.101562 108.46875 61.394531 C 108.636719 59.683594 108.722656 57.96875 108.722656 56.25 C 108.722656 54.53125 108.636719 52.816406 108.46875 51.105469 C 108.300781 49.398438 108.046875 47.699219 107.714844 46.011719 C 107.378906 44.328125 106.960938 42.664062 106.460938 41.019531 C 105.964844 39.375 105.386719 37.757812 104.726562 36.171875 C 104.070312 34.582031 103.335938 33.03125 102.527344 31.515625 C 101.714844 30 100.832031 28.527344 99.878906 27.097656 C 98.921875 25.667969 97.902344 24.289062 96.8125 22.960938 C 95.71875 21.632812 94.566406 20.363281 93.351562 19.148438 C 92.136719 17.933594 90.867188 16.777344 89.539062 15.6875 C 88.210938 14.597656 86.832031 13.578125 85.402344 12.621094 C 83.972656 11.667969 82.5 10.785156 80.984375 9.972656 C 79.46875 9.164062 77.917969 8.429688 76.328125 7.773438 C 74.742188 7.113281 73.125 6.535156 71.480469 6.039062 C 69.835938 5.539062 68.171875 5.121094 66.488281 4.785156 C 64.800781 4.453125 63.101562 4.199219 61.394531 4.03125 C 59.683594 3.863281 57.96875 3.777344 56.25 3.777344 Z M 56.25 3.777344 "/>
<g clip-path="url(#clip1)" clip-rule="nonzero">
<path style=" stroke:none;fill-rule:nonzero;fill:rgb(100%,34.899902%,39.219666%);fill-opacity:1;" d="M 48.109375 52.972656 L 41.308594 47.644531 C 41.023438 47.421875 40.667969 47.300781 40.300781 47.300781 L 13.328125 47.300781 C 9.730469 47.300781 6.8125 44.386719 6.8125 40.792969 L 6.8125 19.105469 C 6.8125 15.511719 9.730469 12.597656 13.328125 12.597656 L 50.691406 12.597656 C 54.289062 12.597656 57.203125 15.511719 57.203125 19.105469 L 57.203125 40.792969 C 57.203125 44.386719 54.289062 47.300781 50.691406 47.300781 L 49.546875 47.300781 C 49.1875 47.300781 48.886719 47.585938 48.886719 47.949219 L 48.886719 52.589844 C 48.886719 52.859375 48.667969 53.078125 48.398438 53.074219 C 48.292969 53.074219 48.1875 53.039062 48.105469 52.976562 L 48.109375 52.972656 "/>
</g>
<g clip-path="url(#clip2)" clip-rule="nonzero">
<path style=" stroke:none;fill-rule:nonzero;fill:rgb(85.099792%,44.709778%,100%);fill-opacity:1;" d="M 74.179688 89.894531 L 79.777344 85.453125 C 80.015625 85.269531 80.304688 85.167969 80.605469 85.167969 L 102.816406 85.167969 C 105.78125 85.167969 108.183594 82.738281 108.183594 79.746094 L 108.183594 61.671875 C 108.183594 58.679688 105.78125 56.25 102.816406 56.25 L 72.054688 56.25 C 69.089844 56.25 66.6875 58.679688 66.6875 61.671875 L 66.6875 79.746094 C 66.6875 82.738281 69.089844 85.167969 72.054688 85.167969 L 72.996094 85.167969 C 73.289062 85.167969 73.539062 85.40625 73.539062 85.707031 L 73.539062 89.578125 C 73.539062 89.800781 73.71875 89.984375 73.9375 89.980469 C 74.027344 89.980469 74.113281 89.949219 74.183594 89.898438 L 74.179688 89.894531 "/>
</g>
<path style=" stroke:none;fill-rule:nonzero;fill:rgb(100%,100%,100%);fill-opacity:1;" d="M 21.816406 27.492188 C 21.460938 27.492188 21.117188 27.558594 20.789062 27.695312 C 20.460938 27.832031 20.171875 28.023438 19.921875 28.277344 C 19.667969 28.527344 19.476562 28.816406 19.339844 29.144531 C 19.203125 29.472656 19.136719 29.816406 19.136719 30.171875 C 19.136719 30.527344 19.203125 30.867188 19.339844 31.195312 C 19.476562 31.523438 19.667969 31.816406 19.921875 32.066406 C 20.171875 32.316406 20.460938 32.511719 20.789062 32.648438 C 21.117188 32.78125 21.460938 32.851562 21.816406 32.851562 C 22.171875 32.851562 22.511719 32.78125 22.839844 32.648438 C 23.167969 32.511719 23.460938 32.316406 23.710938 32.066406 C 23.960938 31.816406 24.15625 31.523438 24.292969 31.195312 C 24.425781 30.867188 24.496094 30.527344 24.496094 30.171875 C 24.496094 29.816406 24.425781 29.472656 24.292969 29.144531 C 24.15625 28.816406 23.960938 28.527344 23.710938 28.277344 C 23.460938 28.023438 23.167969 27.832031 22.839844 27.695312 C 22.511719 27.558594 22.171875 27.492188 21.816406 27.492188 Z M 21.816406 27.492188 "/>
<path style=" stroke:none;fill-rule:nonzero;fill:rgb(100%,100%,100%);fill-opacity:1;" d="M 77.355469 69.039062 C 77 69.039062 76.65625 69.109375 76.328125 69.246094 C 76 69.378906 75.710938 69.574219 75.460938 69.824219 C 75.207031 70.078125 75.015625 70.367188 74.878906 70.695312 C 74.742188 71.023438 74.675781 71.363281 74.675781 71.71875 C 74.675781 72.074219 74.742188 72.417969 74.878906 72.746094 C 75.015625 73.074219 75.207031 73.363281 75.460938 73.617188 C 75.710938 73.867188 76 74.0625 76.328125 74.195312 C 76.65625 74.332031 77 74.402344 77.355469 74.402344 C 77.710938 74.402344 78.050781 74.332031 78.378906 74.195312 C 78.707031 74.0625 79 73.867188 79.25 73.617188 C 79.5 73.363281 79.695312 73.074219 79.832031 72.746094 C 79.964844 72.417969 80.035156 72.074219 80.035156 71.71875 C 80.035156 71.363281 79.964844 71.023438 79.832031 70.695312 C 79.695312 70.367188 79.5 70.078125 79.25 69.824219 C 79 69.574219 78.707031 69.378906 78.378906 69.246094 C 78.050781 69.109375 77.710938 69.039062 77.355469 69.039062 Z M 77.355469 69.039062 "/>
<path style=" stroke:none;fill-rule:nonzero;fill:rgb(100%,100%,100%);fill-opacity:1;" d="M 32.214844 27.492188 C 31.859375 27.492188 31.519531 27.558594 31.191406 27.695312 C 30.863281 27.832031 30.570312 28.023438 30.320312 28.277344 C 30.070312 28.527344 29.875 28.816406 29.738281 29.144531 C 29.601562 29.472656 29.535156 29.816406 29.535156 30.171875 C 29.535156 30.527344 29.601562 30.867188 29.738281 31.195312 C 29.875 31.523438 30.070312 31.816406 30.320312 32.066406 C 30.570312 32.316406 30.863281 32.511719 31.191406 32.648438 C 31.519531 32.78125 31.859375 32.851562 32.214844 32.851562 C 32.570312 32.851562 32.914062 32.78125 33.242188 32.648438 C 33.570312 32.511719 33.859375 32.316406 34.109375 32.066406 C 34.363281 31.816406 34.554688 31.523438 34.691406 31.195312 C 34.828125 30.867188 34.894531 30.527344 34.894531 30.171875 C 34.894531 29.816406 34.828125 29.472656 34.691406 29.144531 C 34.554688 28.816406 34.363281 28.527344 34.109375 28.277344 C 33.859375 28.023438 33.570312 27.832031 33.242188 27.695312 C 32.914062 27.558594 32.570312 27.492188 32.214844 27.492188 Z M 32.214844 27.492188 "/>
<path style=" stroke:none;fill-rule:nonzero;fill:rgb(100%,100%,100%);fill-opacity:1;" d="M 87.753906 69.039062 C 87.398438 69.039062 87.058594 69.109375 86.730469 69.246094 C 86.402344 69.378906 86.109375 69.574219 85.859375 69.824219 C 85.609375 70.078125 85.414062 70.367188 85.277344 70.695312 C 85.140625 71.023438 85.074219 71.363281 85.074219 71.71875 C 85.074219 72.074219 85.140625 72.417969 85.277344 72.746094 C 85.414062 73.074219 85.609375 73.363281 85.859375 73.617188 C 86.109375 73.867188 86.402344 74.0625 86.730469 74.195312 C 87.058594 74.332031 87.398438 74.402344 87.753906 74.402344 C 88.109375 74.402344 88.453125 74.332031 88.78125 74.195312 C 89.109375 74.0625 89.398438 73.867188 89.648438 73.617188 C 89.902344 73.363281 90.09375 73.074219 90.230469 72.746094 C 90.367188 72.417969 90.433594 72.074219 90.433594 71.71875 C 90.433594 71.363281 90.367188 71.023438 90.230469 70.695312 C 90.09375 70.367188 89.902344 70.078125 89.648438 69.824219 C 89.398438 69.574219 89.109375 69.378906 88.78125 69.246094 C 88.453125 69.109375 88.109375 69.039062 87.753906 69.039062 Z M 87.753906 69.039062 "/>
<path style=" stroke:none;fill-rule:nonzero;fill:rgb(100%,100%,100%);fill-opacity:1;" d="M 42.265625 27.492188 C 41.910156 27.492188 41.566406 27.558594 41.238281 27.695312 C 40.910156 27.832031 40.621094 28.023438 40.371094 28.277344 C 40.117188 28.527344 39.925781 28.816406 39.789062 29.144531 C 39.652344 29.472656 39.585938 29.816406 39.585938 30.171875 C 39.585938 30.527344 39.652344 30.867188 39.789062 31.195312 C 39.925781 31.523438 40.117188 31.816406 40.371094 32.066406 C 40.621094 32.316406 40.910156 32.511719 41.238281 32.648438 C 41.566406 32.78125 41.910156 32.851562 42.265625 32.851562 C 42.621094 32.851562 42.960938 32.78125 43.292969 32.648438 C 43.621094 32.511719 43.910156 32.316406 44.160156 32.066406 C 44.410156 31.816406 44.605469 31.523438 44.742188 31.195312 C 44.878906 30.867188 44.945312 30.527344 44.945312 30.171875 C 44.945312 29.816406 44.878906 29.472656 44.742188 29.144531 C 44.605469 28.816406 44.410156 28.527344 44.160156 28.277344 C 43.910156 28.023438 43.621094 27.832031 43.292969 27.695312 C 42.960938 27.558594 42.621094 27.492188 42.265625 27.492188 Z M 42.265625 27.492188 "/>
<path style=" stroke:none;fill-rule:nonzero;fill:rgb(100%,100%,100%);fill-opacity:1;" d="M 97.804688 69.039062 C 97.449219 69.039062 97.105469 69.109375 96.777344 69.246094 C 96.449219 69.378906 96.160156 69.574219 95.910156 69.824219 C 95.65625 70.078125 95.464844 70.367188 95.328125 70.695312 C 95.191406 71.023438 95.125 71.363281 95.125 71.71875 C 95.125 72.074219 95.191406 72.417969 95.328125 72.746094 C 95.464844 73.074219 95.65625 73.363281 95.910156 73.617188 C 96.160156 73.867188 96.449219 74.0625 96.777344 74.195312 C 97.105469 74.332031 97.449219 74.402344 97.804688 74.402344 C 98.160156 74.402344 98.5 74.332031 98.832031 74.195312 C 99.160156 74.0625 99.449219 73.867188 99.699219 73.617188 C 99.949219 73.363281 100.144531 73.074219 100.28125 72.746094 C 100.417969 72.417969 100.484375 72.074219 100.484375 71.71875 C 100.484375 71.363281 100.417969 71.023438 100.28125 70.695312 C 100.144531 70.367188 99.949219 70.078125 99.699219 69.824219 C 99.449219 69.574219 99.160156 69.378906 98.832031 69.246094 C 98.5 69.109375 98.160156 69.039062 97.804688 69.039062 Z M 97.804688 69.039062 "/>
</g>
</svg>
