<?xml version="1.0" encoding="UTF-8"?>
<svg xmlns="http://www.w3.org/2000/svg" xmlns:xlink="http://www.w3.org/1999/xlink" width="112.5pt" height="112.499997pt" viewBox="0 0 112.5 112.499997" version="1.2">
<defs>
<clipPath id="clip1">
  <path d="M 18 11.25 L 94.5 11.25 L 94.5 101.25 L 18 101.25 Z M 18 11.25 "/>
</clipPath>
</defs>
<g id="surface1">
<g clip-path="url(#clip1)" clip-rule="nonzero">
<path style=" stroke:none;fill-rule:nonzero;fill:rgb(100%,34.899902%,39.219666%);fill-opacity:1;" d="M 27 11.25 C 22.035156 11.25 18 15.285156 18 20.25 L 18 92.25 C 18 97.214844 22.035156 101.25 27 101.25 L 81 101.25 C 85.964844 101.25 90 97.214844 90 92.25 L 90 70.875 L 81.007812 77.617188 L 81.007812 92.25 L 27 92.25 L 27 20.25 L 81 20.25 L 81 34.875 L 90 41.625 L 90 20.25 C 90 15.285156 85.964844 11.25 81 11.25 Z M 72 39.375 L 72 51.75 L 49.5 51.75 L 49.5 60.75 L 72 60.75 L 72 73.125 L 94.5 56.25 Z M 72 39.375 "/>
</g>
</g>
</svg>
