<?xml version="1.0" encoding="UTF-8"?>
<svg xmlns="http://www.w3.org/2000/svg" xmlns:xlink="http://www.w3.org/1999/xlink" width="375pt" height="374.999991pt" viewBox="0 0 375 374.999991" version="1.2">
<g id="surface1">
<path style=" stroke:none;fill-rule:nonzero;fill:rgb(100%,100%,100%);fill-opacity:1;" d="M 144.308594 52.113281 C 109.273438 64.171875 79.328125 90.355469 62.753906 123.703125 C 56.914062 135.195312 52.769531 147.25 50.132812 160.0625 C 43.730469 191.332031 48.25 224.867188 62.5625 253.3125 C 71.980469 271.964844 85.355469 288.542969 101.742188 301.351562 C 117.183594 313.597656 135.078125 322.828125 154.101562 327.726562 C 178.210938 334.132812 203.636719 333.945312 227.933594 328.480469 C 249.78125 323.394531 270.5 313.035156 287.074219 297.773438 C 304.589844 281.761719 317.023438 260.660156 323.613281 237.867188 C 330.773438 213.1875 331.714844 186.625 327.195312 161.378906 C 281.988281 161.378906 236.785156 161.378906 191.582031 161.378906 C 191.582031 180.21875 191.582031 198.871094 191.582031 217.707031 C 217.761719 217.707031 243.945312 217.707031 270.125 217.707031 C 267.109375 235.605469 256.375 252.183594 241.304688 262.355469 C 231.699219 268.761719 220.777344 272.90625 209.476562 274.980469 C 198.175781 276.863281 186.308594 277.238281 175.007812 274.980469 C 163.519531 272.71875 152.59375 267.820312 142.988281 261.039062 C 127.734375 250.300781 115.867188 234.476562 110.027344 216.765625 C 103.8125 198.679688 103.8125 178.710938 110.027344 160.625 C 114.359375 148.003906 121.515625 136.136719 130.933594 126.527344 C 142.613281 114.660156 157.679688 105.992188 174.066406 102.601562 C 188.003906 99.585938 202.695312 100.152344 216.445312 104.296875 C 228.121094 107.878906 238.667969 114.28125 247.523438 122.570312 C 256.375 113.71875 265.226562 104.863281 274.078125 96.007812 C 278.789062 91.296875 283.683594 86.777344 288.015625 81.878906 C 274.644531 69.445312 258.824219 59.460938 241.683594 53.054688 C 210.417969 41.5625 175.574219 41.375 144.308594 52.113281 Z M 144.308594 52.113281 "/>
<path style=" stroke:none;fill-rule:nonzero;fill:rgb(91.758728%,26.269531%,20.779419%);fill-opacity:1;" d="M 144.308594 52.113281 C 175.382812 41.375 210.417969 41.5625 241.496094 53.054688 C 258.632812 59.460938 274.457031 69.257812 287.828125 81.878906 C 283.308594 86.777344 278.410156 91.296875 273.890625 96.007812 C 265.039062 104.863281 256.1875 113.71875 247.332031 122.570312 C 238.667969 114.28125 227.933594 107.878906 216.257812 104.296875 C 202.695312 100.152344 187.816406 99.585938 173.878906 102.601562 C 157.679688 106.179688 142.421875 114.660156 130.746094 126.527344 C 121.328125 136.136719 114.171875 147.816406 109.839844 160.625 C 94.019531 148.378906 78.386719 136.136719 62.5625 123.890625 C 79.328125 90.355469 109.273438 64.171875 144.308594 52.113281 Z M 144.308594 52.113281 "/>
<path style=" stroke:none;fill-rule:nonzero;fill:rgb(98.429871%,73.728943%,1.959229%);fill-opacity:1;" d="M 50.132812 159.871094 C 52.769531 147.25 56.914062 135.003906 62.753906 123.511719 C 78.574219 135.757812 94.207031 148.003906 110.027344 160.25 C 103.8125 178.335938 103.8125 198.304688 110.027344 216.390625 C 94.207031 228.636719 78.574219 240.878906 62.753906 253.125 C 48.25 224.492188 43.917969 191.144531 50.132812 159.871094 Z M 50.132812 159.871094 "/>
<path style=" stroke:none;fill-rule:nonzero;fill:rgb(25.878906%,52.159119%,95.689392%);fill-opacity:1;" d="M 191.394531 161.378906 C 236.597656 161.378906 281.800781 161.378906 327.003906 161.378906 C 331.527344 186.8125 330.582031 213.1875 323.425781 237.867188 C 316.835938 260.660156 304.402344 281.574219 286.886719 297.773438 C 271.628906 285.90625 256.375 274.035156 241.117188 262.167969 C 256.1875 251.996094 266.921875 235.605469 269.9375 217.519531 C 243.753906 217.519531 217.574219 217.519531 191.394531 217.519531 C 191.394531 198.871094 191.394531 180.03125 191.394531 161.378906 Z M 191.394531 161.378906 "/>
<path style=" stroke:none;fill-rule:nonzero;fill:rgb(20.388794%,65.879822%,32.548523%);fill-opacity:1;" d="M 62.753906 253.125 C 78.574219 240.878906 94.207031 228.636719 110.027344 216.390625 C 116.054688 234.097656 127.734375 249.921875 142.988281 260.660156 C 152.59375 267.441406 163.519531 272.152344 175.007812 274.601562 C 186.308594 276.863281 197.988281 276.675781 209.476562 274.601562 C 220.777344 272.53125 231.699219 268.386719 241.304688 261.980469 C 256.5625 273.847656 271.820312 285.71875 287.074219 297.585938 C 270.5 312.84375 249.96875 323.207031 227.933594 328.292969 C 203.824219 333.757812 178.210938 333.945312 154.101562 327.539062 C 135.078125 322.453125 117.183594 313.410156 101.742188 301.164062 C 85.542969 288.355469 71.980469 271.585938 62.753906 253.125 Z M 62.753906 253.125 "/>
</g>
</svg>
