<?xml version="1.0" encoding="UTF-8"?>
<svg xmlns="http://www.w3.org/2000/svg" xmlns:xlink="http://www.w3.org/1999/xlink" width="450pt" height="599.999999pt" viewBox="0 0 450 599.999999" version="1.2">
<defs>
<clipPath id="clip1">
  <path d="M 0 37.769531 L 314.449219 37.769531 L 314.449219 599.9375 L 0 599.9375 Z M 0 37.769531 "/>
</clipPath>
<clipPath id="clip2">
  <path d="M 133 210.019531 L 327 210.019531 L 327 417 L 133 417 Z M 133 210.019531 "/>
</clipPath>
<clipPath id="clip3">
  <path d="M 260 294 L 421.542969 294 L 421.542969 472 L 260 472 Z M 260 294 "/>
</clipPath>
</defs>
<g id="surface1">
<g clip-path="url(#clip1)" clip-rule="nonzero">
<path style=" stroke:none;fill-rule:nonzero;fill:rgb(25.099182%,20.779419%,38.038635%);fill-opacity:1;" d="M 188.316406 598.507812 L 94.011719 524.523438 C 90.039062 521.417969 85.136719 519.742188 80.050781 519.742188 L -294.003906 519.742188 C -343.886719 519.742188 -384.339844 479.273438 -384.339844 429.367188 L -384.339844 128.144531 C -384.339844 78.242188 -343.886719 37.769531 -294.003906 37.769531 L 224.113281 37.769531 C 273.996094 37.769531 314.449219 78.242188 314.449219 128.144531 L 314.449219 429.367188 C 314.449219 479.273438 273.996094 519.742188 224.113281 519.742188 L 208.230469 519.742188 C 203.265625 519.742188 199.109375 523.714844 199.109375 528.742188 L 199.109375 593.234375 C 199.109375 596.957031 196.070312 600 192.347656 599.9375 C 190.859375 599.9375 189.429688 599.441406 188.253906 598.570312 L 188.316406 598.507812 "/>
</g>
<path style=" stroke:none;fill-rule:nonzero;fill:rgb(74.508667%,8.628845%,13.328552%);fill-opacity:1;" d="M 167.960938 393.039062 L 162.222656 437.113281 L 184.867188 450.253906 L 190.601562 406.179688 Z M 167.960938 393.039062 "/>
<g clip-path="url(#clip2)" clip-rule="nonzero">
<path style=" stroke:none;fill-rule:nonzero;fill:rgb(74.508667%,8.628845%,13.328552%);fill-opacity:1;" d="M 316.28125 224.433594 C 316.382812 224.390625 316.488281 224.34375 316.589844 224.300781 C 316.859375 224.191406 317.128906 224.089844 317.394531 223.996094 C 317.460938 223.972656 317.527344 223.941406 317.59375 223.921875 C 317.925781 223.808594 318.253906 223.707031 318.582031 223.617188 C 318.769531 223.566406 318.960938 223.519531 319.148438 223.476562 C 319.238281 223.457031 319.328125 223.429688 319.414062 223.410156 C 319.691406 223.351562 319.96875 223.300781 320.242188 223.257812 C 320.65625 223.195312 321.058594 223.160156 321.460938 223.136719 C 321.542969 223.132812 321.625 223.125 321.703125 223.121094 C 322.0625 223.109375 322.414062 223.113281 322.761719 223.132812 C 322.824219 223.132812 322.882812 223.144531 322.941406 223.148438 C 323.222656 223.167969 323.496094 223.199219 323.765625 223.242188 C 323.851562 223.257812 323.9375 223.269531 324.019531 223.285156 C 324.328125 223.34375 324.632812 223.410156 324.929688 223.496094 C 324.945312 223.5 324.960938 223.503906 324.972656 223.507812 C 325.253906 223.589844 325.527344 223.691406 325.792969 223.796875 C 325.871094 223.832031 325.949219 223.863281 326.027344 223.898438 C 326.257812 224 326.480469 224.105469 326.699219 224.226562 C 326.773438 224.265625 326.847656 224.300781 326.921875 224.339844 L 326.914062 224.335938 C 326.917969 224.339844 326.917969 224.339844 326.921875 224.339844 L 304.277344 211.199219 C 304.242188 211.179688 304.210938 211.164062 304.175781 211.144531 C 304.140625 211.121094 304.097656 211.105469 304.058594 211.085938 C 303.839844 210.96875 303.617188 210.859375 303.386719 210.757812 C 303.34375 210.738281 303.304688 210.714844 303.261719 210.695312 C 303.226562 210.683594 303.1875 210.671875 303.152344 210.660156 C 302.882812 210.550781 302.613281 210.453125 302.332031 210.371094 C 302.320312 210.367188 302.308594 210.359375 302.296875 210.359375 C 302.296875 210.355469 302.292969 210.355469 302.289062 210.355469 C 301.996094 210.269531 301.6875 210.203125 301.378906 210.144531 C 301.34375 210.140625 301.308594 210.128906 301.273438 210.121094 C 301.222656 210.113281 301.171875 210.113281 301.125 210.105469 C 300.855469 210.0625 300.582031 210.03125 300.300781 210.007812 C 300.253906 210.003906 300.210938 209.996094 300.167969 209.992188 C 300.152344 209.992188 300.136719 209.996094 300.121094 209.992188 C 299.773438 209.972656 299.421875 209.972656 299.0625 209.984375 C 299.027344 209.988281 298.992188 209.984375 298.960938 209.984375 C 298.914062 209.988281 298.867188 209.996094 298.820312 210 C 298.421875 210.023438 298.015625 210.058594 297.597656 210.121094 C 297.324219 210.164062 297.050781 210.214844 296.773438 210.273438 C 296.6875 210.292969 296.597656 210.316406 296.507812 210.339844 C 296.335938 210.378906 296.164062 210.417969 295.992188 210.460938 C 295.972656 210.46875 295.957031 210.472656 295.9375 210.480469 C 295.613281 210.566406 295.285156 210.667969 294.953125 210.78125 C 294.886719 210.804688 294.820312 210.832031 294.753906 210.855469 C 294.488281 210.949219 294.21875 211.054688 293.945312 211.164062 C 293.910156 211.179688 293.875 211.1875 293.839844 211.203125 C 293.773438 211.230469 293.707031 211.265625 293.640625 211.296875 C 293.351562 211.417969 293.0625 211.550781 292.769531 211.691406 C 292.660156 211.746094 292.550781 211.796875 292.4375 211.851562 C 292.058594 212.046875 291.671875 212.25 291.28125 212.472656 L 151.328125 293.160156 C 150.84375 293.441406 150.363281 293.742188 149.886719 294.0625 C 149.808594 294.117188 149.726562 294.167969 149.644531 294.222656 C 149.191406 294.53125 148.742188 294.855469 148.300781 295.199219 C 148.214844 295.261719 148.128906 295.332031 148.042969 295.398438 C 147.59375 295.753906 147.148438 296.117188 146.710938 296.5 C 146.671875 296.535156 146.636719 296.570312 146.59375 296.601562 C 146.171875 296.976562 145.757812 297.363281 145.347656 297.761719 C 145.308594 297.804688 145.265625 297.839844 145.222656 297.878906 C 145.199219 297.90625 145.175781 297.933594 145.148438 297.957031 C 144.835938 298.269531 144.523438 298.585938 144.21875 298.910156 C 144.199219 298.929688 144.183594 298.949219 144.167969 298.96875 C 143.878906 299.277344 143.59375 299.59375 143.3125 299.914062 C 143.285156 299.945312 143.253906 299.972656 143.230469 300.003906 C 143.195312 300.042969 143.164062 300.085938 143.128906 300.125 C 142.671875 300.65625 142.222656 301.199219 141.785156 301.757812 C 141.773438 301.773438 141.761719 301.789062 141.746094 301.808594 C 141.714844 301.851562 141.679688 301.898438 141.648438 301.941406 C 141.300781 302.390625 140.964844 302.847656 140.632812 303.3125 C 140.601562 303.359375 140.566406 303.40625 140.53125 303.453125 C 140.515625 303.472656 140.503906 303.496094 140.488281 303.519531 C 140.171875 303.96875 139.863281 304.429688 139.566406 304.894531 C 139.535156 304.941406 139.503906 304.984375 139.476562 305.027344 C 139.433594 305.09375 139.394531 305.164062 139.351562 305.230469 C 139.109375 305.613281 138.875 306 138.644531 306.390625 C 138.605469 306.449219 138.566406 306.507812 138.53125 306.570312 C 138.519531 306.59375 138.507812 306.617188 138.492188 306.640625 C 138.234375 307.089844 137.980469 307.539062 137.738281 307.996094 C 137.71875 308.035156 137.695312 308.070312 137.675781 308.105469 C 137.636719 308.179688 137.601562 308.257812 137.5625 308.332031 C 137.371094 308.695312 137.183594 309.0625 137.003906 309.429688 C 136.964844 309.507812 136.925781 309.582031 136.890625 309.65625 C 136.867188 309.703125 136.847656 309.746094 136.828125 309.792969 C 136.605469 310.257812 136.390625 310.726562 136.183594 311.195312 C 136.179688 311.210938 136.171875 311.226562 136.164062 311.238281 C 136.140625 311.289062 136.121094 311.34375 136.101562 311.394531 C 135.917969 311.816406 135.746094 312.242188 135.578125 312.667969 C 135.550781 312.738281 135.519531 312.804688 135.496094 312.875 C 135.472656 312.933594 135.453125 312.992188 135.433594 313.050781 C 135.242188 313.554688 135.054688 314.058594 134.886719 314.566406 C 134.882812 314.578125 134.878906 314.585938 134.875 314.597656 C 134.867188 314.628906 134.859375 314.660156 134.847656 314.691406 C 134.675781 315.210938 134.515625 315.734375 134.367188 316.257812 C 134.351562 316.324219 134.328125 316.390625 134.308594 316.457031 C 134.296875 316.492188 134.292969 316.527344 134.28125 316.5625 C 134.117188 317.171875 133.964844 317.78125 133.835938 318.386719 C 133.824219 318.441406 133.804688 318.492188 133.796875 318.546875 C 133.777344 318.625 133.765625 318.707031 133.75 318.785156 C 133.703125 319.023438 133.65625 319.257812 133.613281 319.5 C 133.582031 319.664062 133.550781 319.828125 133.523438 319.996094 C 133.484375 320.238281 133.449219 320.484375 133.414062 320.726562 C 133.398438 320.84375 133.375 320.960938 133.359375 321.078125 C 133.355469 321.105469 133.355469 321.136719 133.351562 321.167969 C 133.285156 321.691406 133.234375 322.214844 133.199219 322.730469 C 133.1875 322.839844 133.183594 322.949219 133.175781 323.058594 C 133.144531 323.59375 133.125 324.121094 133.125 324.644531 L 133.316406 392.035156 C 133.332031 397.78125 135.363281 401.824219 138.640625 403.726562 L 161.285156 416.867188 C 158.007812 414.964844 155.976562 410.921875 155.960938 405.175781 L 155.769531 337.785156 C 155.769531 337.261719 155.789062 336.730469 155.820312 336.199219 C 155.828125 336.089844 155.832031 335.980469 155.839844 335.871094 C 155.878906 335.355469 155.925781 334.832031 155.996094 334.308594 C 156.011719 334.160156 156.035156 334.015625 156.054688 333.867188 C 156.089844 333.625 156.125 333.382812 156.167969 333.136719 C 156.195312 332.972656 156.222656 332.804688 156.253906 332.640625 C 156.296875 332.402344 156.34375 332.164062 156.390625 331.925781 C 156.417969 331.796875 156.449219 331.664062 156.476562 331.53125 C 156.609375 330.921875 156.757812 330.316406 156.925781 329.707031 C 156.953125 329.605469 156.980469 329.503906 157.011719 329.402344 C 157.160156 328.878906 157.316406 328.355469 157.488281 327.832031 C 157.503906 327.792969 157.515625 327.75 157.527344 327.710938 C 157.699219 327.203125 157.882812 326.699219 158.074219 326.191406 C 158.121094 326.066406 158.171875 325.9375 158.222656 325.8125 C 158.386719 325.386719 158.5625 324.960938 158.742188 324.539062 C 158.773438 324.472656 158.796875 324.40625 158.828125 324.335938 C 159.03125 323.867188 159.246094 323.402344 159.46875 322.9375 C 159.527344 322.816406 159.585938 322.695312 159.648438 322.570312 C 159.828125 322.203125 160.011719 321.839844 160.203125 321.476562 C 160.261719 321.363281 160.320312 321.253906 160.378906 321.140625 C 160.621094 320.6875 160.875 320.234375 161.136719 319.785156 C 161.183594 319.703125 161.234375 319.617188 161.285156 319.535156 C 161.515625 319.144531 161.75 318.757812 161.992188 318.375 C 162.066406 318.265625 162.136719 318.152344 162.207031 318.039062 C 162.507812 317.574219 162.8125 317.117188 163.128906 316.664062 C 163.179688 316.59375 163.230469 316.527344 163.277344 316.457031 C 163.605469 315.992188 163.945312 315.535156 164.289062 315.085938 C 164.335938 315.027344 164.382812 314.964844 164.429688 314.902344 C 164.863281 314.34375 165.3125 313.800781 165.769531 313.269531 C 165.832031 313.199219 165.890625 313.128906 165.953125 313.058594 C 166.234375 312.738281 166.519531 312.421875 166.808594 312.113281 C 166.824219 312.09375 166.84375 312.074219 166.859375 312.058594 C 167.164062 311.730469 167.476562 311.414062 167.792969 311.101562 C 167.855469 311.035156 167.925781 310.972656 167.992188 310.910156 C 168.402344 310.507812 168.816406 310.121094 169.238281 309.75 C 169.277344 309.714844 169.316406 309.675781 169.355469 309.644531 C 169.792969 309.261719 170.238281 308.894531 170.6875 308.542969 C 170.773438 308.476562 170.859375 308.410156 170.945312 308.34375 C 171.386719 308.003906 171.835938 307.675781 172.289062 307.367188 C 172.367188 307.3125 172.449219 307.261719 172.53125 307.207031 C 173.007812 306.890625 173.484375 306.585938 173.96875 306.304688 L 313.925781 225.617188 C 314.3125 225.394531 314.699219 225.191406 315.082031 224.996094 C 315.191406 224.941406 315.300781 224.886719 315.414062 224.835938 C 315.703125 224.6875 315.992188 224.558594 316.28125 224.433594 Z M 316.28125 224.433594 "/>
</g>
<path style=" stroke:none;fill-rule:nonzero;fill:rgb(100%,100%,100%);fill-opacity:1;" d="M 256.269531 301.214844 C 261.824219 298.015625 266.339844 300.585938 266.359375 306.957031 C 266.378906 313.328125 261.890625 321.09375 256.335938 324.292969 C 250.785156 327.496094 246.265625 324.925781 246.246094 318.550781 C 246.230469 312.179688 250.71875 304.417969 256.269531 301.214844 Z M 256.269531 301.214844 "/>
<path style=" stroke:none;fill-rule:nonzero;fill:rgb(100%,34.899902%,39.219666%);fill-opacity:1;" d="M 313.921875 225.613281 C 324.011719 219.796875 332.210938 224.464844 332.242188 236.03125 L 332.433594 303.425781 C 332.464844 314.992188 324.320312 329.085938 314.234375 334.898438 L 222.78125 387.628906 L 184.867188 450.253906 L 190.601562 406.179688 L 174.28125 415.589844 C 164.191406 421.40625 155.992188 416.738281 155.960938 405.171875 L 155.769531 337.777344 C 155.738281 326.210938 163.882812 312.117188 173.96875 306.300781 Z M 287.171875 306.515625 C 292.726562 303.316406 297.214844 295.554688 297.195312 289.179688 C 297.175781 282.808594 292.660156 280.238281 287.105469 283.441406 C 281.550781 286.640625 277.0625 294.40625 277.082031 300.777344 C 277.101562 307.148438 281.617188 309.71875 287.171875 306.515625 M 256.335938 324.292969 C 261.890625 321.09375 266.378906 313.332031 266.359375 306.957031 C 266.339844 300.585938 261.824219 298.015625 256.269531 301.21875 C 250.71875 304.417969 246.230469 312.183594 246.246094 318.554688 C 246.265625 324.925781 250.785156 327.496094 256.335938 324.292969 M 191.164062 361.867188 C 196.71875 358.667969 201.207031 350.90625 201.1875 344.53125 C 201.171875 338.160156 196.652344 335.589844 191.097656 338.792969 C 185.546875 341.992188 181.058594 349.757812 181.078125 356.128906 C 181.09375 362.5 185.609375 365.070312 191.164062 361.867188 M 223.6875 343.117188 C 229.242188 339.917969 233.730469 332.152344 233.710938 325.78125 C 233.691406 319.410156 229.175781 316.839844 223.621094 320.042969 C 218.066406 323.242188 213.578125 331.003906 213.597656 337.378906 C 213.617188 343.75 218.132812 346.320312 223.6875 343.117188 "/>
<path style=" stroke:none;fill-rule:nonzero;fill:rgb(100%,100%,100%);fill-opacity:1;" d="M 287.105469 283.4375 C 292.660156 280.238281 297.175781 282.808594 297.195312 289.179688 C 297.214844 295.550781 292.726562 303.316406 287.171875 306.515625 C 281.617188 309.71875 277.101562 307.148438 277.082031 300.773438 C 277.0625 294.402344 281.550781 286.640625 287.105469 283.4375 Z M 287.105469 283.4375 "/>
<path style=" stroke:none;fill-rule:nonzero;fill:rgb(100%,100%,100%);fill-opacity:1;" d="M 223.621094 320.042969 C 229.175781 316.839844 233.691406 319.410156 233.710938 325.78125 C 233.730469 332.152344 229.242188 339.917969 223.6875 343.117188 C 218.132812 346.320312 213.617188 343.75 213.597656 337.375 C 213.578125 331.003906 218.066406 323.242188 223.621094 320.042969 Z M 223.621094 320.042969 "/>
<path style=" stroke:none;fill-rule:nonzero;fill:rgb(100%,100%,100%);fill-opacity:1;" d="M 191.097656 338.789062 C 196.652344 335.589844 201.171875 338.160156 201.1875 344.53125 C 201.207031 350.902344 196.71875 358.667969 191.164062 361.867188 C 185.613281 365.070312 181.09375 362.5 181.078125 356.125 C 181.058594 349.753906 185.546875 341.992188 191.097656 338.789062 Z M 191.097656 338.789062 "/>
<path style=" stroke:none;fill-rule:nonzero;fill:rgb(100%,100%,100%);fill-opacity:1;" d="M 388.789062 342.433594 C 394.339844 339.234375 398.859375 341.804688 398.878906 348.175781 C 398.894531 354.550781 394.40625 362.3125 388.855469 365.511719 C 383.300781 368.714844 378.785156 366.144531 378.765625 359.769531 C 378.746094 353.398438 383.234375 345.636719 388.789062 342.433594 Z M 388.789062 342.433594 "/>
<path style=" stroke:none;fill-rule:nonzero;fill:rgb(100%,100%,100%);fill-opacity:1;" d="M 357.957031 360.210938 C 363.511719 357.007812 368.023438 359.582031 368.042969 365.953125 C 368.058594 372.328125 363.578125 380.085938 358.023438 383.289062 C 352.46875 386.488281 347.953125 383.917969 347.933594 377.546875 C 347.917969 371.175781 352.40625 363.410156 357.957031 360.210938 Z M 357.957031 360.210938 "/>
<path style=" stroke:none;fill-rule:nonzero;fill:rgb(100%,100%,100%);fill-opacity:1;" d="M 325.304688 379.035156 C 330.855469 375.835938 335.375 378.40625 335.394531 384.777344 C 335.410156 391.152344 330.921875 398.914062 325.371094 402.113281 C 319.816406 405.316406 315.300781 402.746094 315.28125 396.375 C 315.261719 390 319.75 382.238281 325.304688 379.035156 Z M 325.304688 379.035156 "/>
<path style=" stroke:none;fill-rule:nonzero;fill:rgb(100%,100%,100%);fill-opacity:1;" d="M 292.789062 397.785156 C 298.339844 394.582031 302.859375 397.152344 302.875 403.527344 C 302.894531 409.898438 298.40625 417.660156 292.851562 420.863281 C 287.300781 424.0625 282.78125 421.492188 282.765625 415.121094 C 282.746094 408.75 287.234375 400.984375 292.789062 397.785156 Z M 292.789062 397.785156 "/>
<g clip-path="url(#clip3)" clip-rule="nonzero">
<path style=" stroke:none;fill-rule:nonzero;fill:rgb(79.60968%,42.349243%,90.19928%);fill-opacity:1;" d="M 404.371094 296.515625 C 413.550781 291.222656 421.007812 295.472656 421.039062 306 L 421.214844 367.339844 C 421.242188 377.867188 413.832031 390.691406 404.652344 395.984375 L 391.988281 403.285156 L 397.085938 435.207031 L 364.464844 419.152344 L 277.277344 469.421875 C 268.101562 474.710938 260.640625 470.460938 260.609375 459.933594 L 260.433594 398.597656 C 260.40625 388.070312 267.816406 375.246094 276.996094 369.953125 Z M 388.855469 365.511719 C 394.40625 362.3125 398.894531 354.550781 398.878906 348.175781 C 398.859375 341.804688 394.339844 339.234375 388.789062 342.433594 C 383.234375 345.636719 378.746094 353.398438 378.765625 359.773438 C 378.785156 366.144531 383.300781 368.714844 388.855469 365.511719 M 292.851562 420.863281 C 298.40625 417.660156 302.894531 409.898438 302.875 403.527344 C 302.855469 397.152344 298.339844 394.582031 292.785156 397.785156 C 287.234375 400.984375 282.746094 408.75 282.761719 415.121094 C 282.78125 421.492188 287.300781 424.0625 292.851562 420.863281 M 325.371094 402.113281 C 330.921875 398.914062 335.410156 391.152344 335.394531 384.777344 C 335.375 378.40625 330.859375 375.835938 325.304688 379.035156 C 319.75 382.238281 315.261719 390 315.28125 396.375 C 315.300781 402.746094 319.816406 405.316406 325.371094 402.113281 M 358.023438 383.289062 C 363.578125 380.085938 368.058594 372.328125 368.042969 365.953125 C 368.027344 359.582031 363.511719 357.007812 357.960938 360.210938 C 352.40625 363.410156 347.917969 371.175781 347.9375 377.546875 C 347.953125 383.921875 352.472656 386.488281 358.023438 383.289062 "/>
</g>
<path style=" stroke:none;fill-rule:nonzero;fill:rgb(55.288696%,39.608765%,85.879517%);fill-opacity:1;" d="M 405.421875 295.949219 C 405.523438 295.898438 405.625 295.851562 405.726562 295.804688 C 405.988281 295.675781 406.253906 295.554688 406.515625 295.441406 C 406.609375 295.402344 406.703125 295.359375 406.792969 295.324219 C 407.042969 295.222656 407.285156 295.128906 407.527344 295.042969 C 407.589844 295.019531 407.652344 294.996094 407.710938 294.976562 C 408.011719 294.875 408.3125 294.78125 408.609375 294.699219 C 408.78125 294.652344 408.949219 294.613281 409.121094 294.574219 C 409.203125 294.554688 409.285156 294.53125 409.367188 294.511719 C 409.621094 294.457031 409.871094 294.410156 410.117188 294.375 C 410.492188 294.316406 410.863281 294.285156 411.226562 294.265625 C 411.300781 294.257812 411.375 294.253906 411.449219 294.253906 C 411.773438 294.242188 412.09375 294.242188 412.410156 294.261719 C 412.464844 294.265625 412.519531 294.269531 412.574219 294.273438 C 412.828125 294.292969 413.078125 294.324219 413.324219 294.363281 C 413.398438 294.375 413.476562 294.386719 413.554688 294.398438 C 413.835938 294.453125 414.113281 294.511719 414.382812 294.589844 C 414.394531 294.59375 414.40625 294.597656 414.421875 294.601562 C 414.675781 294.679688 414.925781 294.769531 415.167969 294.867188 C 415.238281 294.894531 415.308594 294.925781 415.382812 294.957031 C 415.589844 295.046875 415.792969 295.148438 415.992188 295.253906 C 416.058594 295.292969 416.128906 295.324219 416.191406 295.359375 L 393.550781 282.21875 C 393.519531 282.203125 393.488281 282.183594 393.457031 282.167969 C 393.421875 282.148438 393.386719 282.132812 393.347656 282.113281 C 393.148438 282.007812 392.945312 281.90625 392.738281 281.816406 C 392.699219 281.796875 392.664062 281.777344 392.625 281.761719 C 392.589844 281.746094 392.558594 281.738281 392.523438 281.726562 C 392.28125 281.628906 392.03125 281.539062 391.777344 281.460938 C 391.765625 281.460938 391.757812 281.453125 391.746094 281.453125 C 391.742188 281.449219 391.742188 281.449219 391.738281 281.449219 C 391.46875 281.375 391.191406 281.3125 390.910156 281.261719 C 390.878906 281.253906 390.847656 281.246094 390.8125 281.238281 C 390.769531 281.230469 390.722656 281.230469 390.679688 281.222656 C 390.433594 281.183594 390.183594 281.15625 389.929688 281.136719 C 389.890625 281.132812 389.851562 281.125 389.808594 281.121094 C 389.796875 281.121094 389.78125 281.121094 389.765625 281.121094 C 389.453125 281.105469 389.128906 281.101562 388.804688 281.113281 C 388.773438 281.113281 388.742188 281.113281 388.710938 281.113281 C 388.667969 281.113281 388.625 281.125 388.582031 281.125 C 388.21875 281.144531 387.847656 281.179688 387.472656 281.234375 C 387.472656 281.234375 387.472656 281.234375 387.46875 281.234375 C 387.222656 281.273438 386.972656 281.320312 386.722656 281.375 C 386.640625 281.390625 386.558594 281.414062 386.476562 281.433594 C 386.320312 281.472656 386.164062 281.503906 386.007812 281.546875 C 385.992188 281.550781 385.976562 281.558594 385.960938 281.5625 C 385.667969 281.644531 385.367188 281.734375 385.066406 281.839844 C 385.007812 281.859375 384.945312 281.886719 384.882812 281.90625 C 384.640625 281.992188 384.394531 282.082031 384.148438 282.183594 C 384.117188 282.199219 384.085938 282.207031 384.050781 282.222656 C 383.992188 282.246094 383.929688 282.28125 383.871094 282.304688 C 383.609375 282.417969 383.34375 282.539062 383.078125 282.664062 C 382.980469 282.714844 382.878906 282.761719 382.777344 282.8125 C 382.429688 282.988281 382.078125 283.171875 381.726562 283.378906 L 254.351562 356.816406 C 253.816406 357.125 253.289062 357.464844 252.765625 357.820312 C 252.59375 357.9375 252.429688 358.066406 252.261719 358.1875 C 251.910156 358.4375 251.5625 358.699219 251.21875 358.972656 C 251.027344 359.125 250.839844 359.28125 250.648438 359.441406 C 250.332031 359.707031 250.019531 359.980469 249.710938 360.261719 C 249.519531 360.433594 249.332031 360.605469 249.148438 360.78125 C 249.03125 360.894531 248.914062 360.996094 248.796875 361.109375 C 248.492188 361.410156 248.191406 361.714844 247.898438 362.03125 C 247.894531 362.035156 247.886719 362.042969 247.882812 362.046875 C 247.578125 362.371094 247.277344 362.703125 246.980469 363.039062 C 246.886719 363.148438 246.796875 363.269531 246.703125 363.378906 C 246.480469 363.636719 246.269531 363.898438 246.054688 364.164062 C 245.917969 364.339844 245.769531 364.503906 245.632812 364.679688 C 245.519531 364.824219 245.417969 364.976562 245.304688 365.121094 C 245.148438 365.328125 244.996094 365.535156 244.84375 365.746094 C 244.742188 365.890625 244.628906 366.027344 244.527344 366.175781 C 244.351562 366.421875 244.1875 366.679688 244.019531 366.929688 C 243.914062 367.089844 243.804688 367.246094 243.699219 367.410156 C 243.65625 367.476562 243.609375 367.539062 243.566406 367.605469 C 243.269531 368.070312 242.984375 368.535156 242.707031 369.011719 C 242.691406 369.042969 242.671875 369.074219 242.652344 369.105469 C 242.597656 369.203125 242.546875 369.300781 242.492188 369.398438 C 242.300781 369.734375 242.109375 370.066406 241.929688 370.410156 C 241.84375 370.566406 241.765625 370.730469 241.683594 370.890625 C 241.597656 371.054688 241.515625 371.21875 241.433594 371.386719 C 241.359375 371.53125 241.28125 371.675781 241.210938 371.820312 C 241.023438 372.210938 240.847656 372.601562 240.671875 372.996094 C 240.640625 373.066406 240.605469 373.132812 240.578125 373.203125 C 240.570312 373.222656 240.558594 373.238281 240.550781 373.257812 C 240.339844 373.753906 240.132812 374.25 239.941406 374.746094 C 239.90625 374.839844 239.878906 374.933594 239.84375 375.023438 C 239.773438 375.207031 239.710938 375.386719 239.648438 375.570312 C 239.558594 375.820312 239.460938 376.066406 239.378906 376.3125 C 239.316406 376.507812 239.261719 376.703125 239.199219 376.898438 C 239.128906 377.128906 239.058594 377.355469 238.992188 377.582031 C 238.949219 377.722656 238.902344 377.863281 238.863281 378.003906 C 238.789062 378.257812 238.738281 378.511719 238.675781 378.765625 C 238.605469 379.046875 238.53125 379.332031 238.46875 379.613281 C 238.445312 379.710938 238.417969 379.808594 238.394531 379.910156 C 238.296875 380.375 238.210938 380.839844 238.136719 381.304688 C 238.121094 381.402344 238.105469 381.496094 238.089844 381.59375 C 238.058594 381.796875 238.023438 382.003906 237.996094 382.210938 C 237.960938 382.488281 237.945312 382.757812 237.917969 383.035156 C 237.898438 383.230469 237.875 383.429688 237.859375 383.625 C 237.8125 384.242188 237.785156 384.855469 237.785156 385.457031 L 237.960938 446.792969 C 237.976562 452.023438 239.824219 455.707031 242.804688 457.4375 L 265.449219 470.578125 C 262.464844 468.847656 260.617188 465.164062 260.601562 459.933594 L 260.429688 398.597656 C 260.425781 397.996094 260.457031 397.382812 260.503906 396.765625 C 260.515625 396.570312 260.539062 396.371094 260.558594 396.175781 C 260.609375 395.695312 260.660156 395.21875 260.734375 394.734375 C 260.75 394.636719 260.761719 394.539062 260.777344 394.445312 C 260.871094 393.882812 260.984375 393.320312 261.109375 392.753906 C 261.171875 392.472656 261.246094 392.1875 261.316406 391.90625 C 261.417969 391.511719 261.519531 391.117188 261.632812 390.722656 C 261.699219 390.496094 261.769531 390.269531 261.84375 390.039062 C 261.980469 389.59375 262.128906 389.152344 262.289062 388.710938 C 262.351562 388.527344 262.414062 388.347656 262.484375 388.164062 C 262.714844 387.554688 262.957031 386.945312 263.21875 386.34375 C 263.25 386.273438 263.28125 386.207031 263.3125 386.136719 C 263.550781 385.597656 263.808594 385.058594 264.074219 384.527344 C 264.15625 384.359375 264.238281 384.195312 264.324219 384.03125 C 264.582031 383.527344 264.851562 383.03125 265.132812 382.539062 C 265.1875 382.441406 265.238281 382.34375 265.292969 382.246094 C 265.628906 381.671875 265.980469 381.105469 266.339844 380.550781 C 266.445312 380.386719 266.554688 380.230469 266.660156 380.070312 C 266.929688 379.667969 267.203125 379.273438 267.484375 378.882812 C 267.636719 378.675781 267.792969 378.464844 267.945312 378.261719 C 268.191406 377.9375 268.441406 377.617188 268.695312 377.304688 C 268.910156 377.039062 269.125 376.777344 269.34375 376.519531 C 269.730469 376.066406 270.117188 375.613281 270.519531 375.1875 C 270.527344 375.179688 270.53125 375.175781 270.539062 375.167969 C 270.945312 374.738281 271.363281 374.324219 271.789062 373.921875 C 271.972656 373.746094 272.160156 373.570312 272.347656 373.398438 C 272.660156 373.117188 272.972656 372.847656 273.289062 372.582031 C 273.476562 372.421875 273.664062 372.261719 273.859375 372.109375 C 274.203125 371.835938 274.550781 371.578125 274.902344 371.324219 C 275.070312 371.203125 275.234375 371.078125 275.40625 370.960938 C 275.925781 370.601562 276.453125 370.261719 276.988281 369.953125 L 404.363281 296.519531 C 404.722656 296.3125 405.074219 296.125 405.421875 295.949219 Z M 405.421875 295.949219 "/>
</g>
</svg>
