<?xml version="1.0" encoding="UTF-8"?>
<svg xmlns="http://www.w3.org/2000/svg" xmlns:xlink="http://www.w3.org/1999/xlink" width="450pt" height="599.999999pt" viewBox="0 0 450 599.999999" version="1.2">
<defs>
<filter id="alpha" filterUnits="objectBoundingBox" x="0%" y="0%" width="100%" height="100%">
  <feColorMatrix type="matrix" in="SourceGraphic" values="0 0 0 0 1 0 0 0 0 1 0 0 0 0 1 0 0 0 1 0"/>
</filter>
<mask id="mask0">
  <g filter="url(#alpha)">
<rect x="0" y="0" width="450" height="599.999999" style="fill:rgb(0%,0%,0%);fill-opacity:0.4078;stroke:none;"/>
  </g>
</mask>
<clipPath id="clip2">
  <path d="M 0 0.0703125 L 288.03125 0.0703125 L 288.03125 509.765625 L 0 509.765625 Z M 0 0.0703125 "/>
</clipPath>
<clipPath id="clip1">
  <rect x="0" y="0" width="289" height="519"/>
</clipPath>
<g id="surface5" clip-path="url(#clip1)">
<g clip-path="url(#clip2)" clip-rule="nonzero">
<path style=" stroke:none;fill-rule:nonzero;fill:rgb(54.899597%,32.159424%,100%);fill-opacity:1;" d="M 173.535156 508.46875 L 87.929688 441.390625 C 84.324219 438.574219 79.875 437.054688 75.257812 437.054688 L -264.292969 437.054688 C -309.574219 437.054688 -346.292969 400.363281 -346.292969 355.117188 L -346.292969 82.007812 C -346.292969 36.761719 -309.574219 0.0703125 -264.292969 0.0703125 L 206.03125 0.0703125 C 251.308594 0.0703125 288.03125 36.761719 288.03125 82.007812 L 288.03125 355.117188 C 288.03125 400.363281 251.308594 437.054688 206.03125 437.054688 L 191.613281 437.054688 C 187.105469 437.054688 183.332031 440.65625 183.332031 445.214844 L 183.332031 503.6875 C 183.332031 507.0625 180.574219 509.820312 177.195312 509.765625 C 175.84375 509.765625 174.546875 509.316406 173.476562 508.527344 L 173.535156 508.46875 "/>
</g>
</g>
<clipPath id="clip3">
  <path d="M 223 86.582031 L 431.222656 86.582031 L 431.222656 253.734375 L 223 253.734375 Z M 223 86.582031 "/>
</clipPath>
<clipPath id="clip4">
  <path d="M 80.1875 254.113281 L 325.484375 254.113281 L 325.484375 451.246094 L 80.1875 451.246094 Z M 80.1875 254.113281 "/>
</clipPath>
</defs>
<g id="surface1">
<use xlink:href="#surface5" transform="matrix(1,0,0,1,0,66)" mask="url(#mask0)"/>
<g clip-path="url(#clip3)" clip-rule="nonzero">
<path style=" stroke:none;fill-rule:nonzero;fill:rgb(79.60968%,42.349243%,90.19928%);fill-opacity:1;" d="M 393.636719 253.308594 L 365.539062 231.308594 C 364.355469 230.386719 362.894531 229.890625 361.378906 229.890625 L 249.917969 229.890625 C 235.054688 229.890625 223 217.855469 223 203.019531 L 223 113.453125 C 223 98.617188 235.054688 86.582031 249.917969 86.582031 L 404.304688 86.582031 C 419.167969 86.582031 431.222656 98.617188 431.222656 113.453125 L 431.222656 203.019531 C 431.222656 217.855469 419.167969 229.890625 404.304688 229.890625 L 399.574219 229.890625 C 398.09375 229.890625 396.855469 231.070312 396.855469 232.566406 L 396.855469 251.742188 C 396.855469 252.847656 395.949219 253.753906 394.839844 253.734375 C 394.394531 253.734375 393.972656 253.585938 393.621094 253.328125 L 393.636719 253.308594 "/>
</g>
<g clip-path="url(#clip4)" clip-rule="nonzero">
<path style=" stroke:none;fill-rule:nonzero;fill:rgb(100%,34.899902%,39.219666%);fill-opacity:1;" d="M 124.460938 450.746094 L 157.5625 424.800781 C 158.953125 423.710938 160.675781 423.125 162.460938 423.125 L 293.753906 423.125 C 311.261719 423.125 325.460938 408.933594 325.460938 391.433594 L 325.460938 285.804688 C 325.460938 268.304688 311.261719 254.113281 293.753906 254.113281 L 111.894531 254.113281 C 94.386719 254.113281 80.1875 268.304688 80.1875 285.804688 L 80.1875 391.433594 C 80.1875 408.933594 94.386719 423.125 111.894531 423.125 L 117.46875 423.125 C 119.210938 423.125 120.671875 424.515625 120.671875 426.28125 L 120.671875 448.894531 C 120.671875 450.199219 121.738281 451.265625 123.042969 451.246094 C 123.566406 451.246094 124.066406 451.070312 124.480469 450.765625 L 124.460938 450.746094 "/>
</g>
</g>
</svg>
